<svg width="33" height="32" viewBox="0 0 33 32" fill="none" xmlns="http://www.w3.org/2000/svg">
<g clip-path="url(#clip0_1128_6623)">
<path d="M29.8101 13.72V9.14H28.2801V10.67H25.2401V7.62H26.7601V6.1H23.7101V3.05H22.1901V0H5.4301V1.52H2.3801V13.72H0.850098V32H32.8501V13.72H29.8101ZM23.7101 7.62V12.19H28.2801V13.72H16.0901V7.62H23.7101ZM3.9001 3.05H5.4301V13.72H3.9001V3.05ZM10.0001 18.29H8.4701V19.81H5.4301V18.29H3.9001V16.76H10.0001V18.29ZM10.0001 13.72H6.9501V1.52H20.6601V3.05H10.0001V13.72ZM11.5201 4.57H22.1901V6.1H14.5701V13.72H11.5201V4.57ZM31.3301 30.48H13.0501V15.24H31.3301V30.48Z" fill="white"/>
<path d="M29.8102 22.86H28.2802V24.38H29.8102V22.86Z" fill="white"/>
<path d="M29.8102 27.43H20.6602V28.95H29.8102V27.43Z" fill="white"/>
<path d="M28.2801 7.62H26.7601V9.14H28.2801V7.62Z" fill="white"/>
<path d="M26.7601 24.38H23.7101V25.91H26.7601V24.38Z" fill="white"/>
<path d="M22.1902 22.86H20.6602V24.38H22.1902V22.86Z" fill="white"/>
</g>
<defs>
<clipPath id="clip0_1128_6623">
<rect width="32" height="32" fill="white" transform="translate(0.850098)"/>
</clipPath>
</defs>
</svg>
