<svg width="33" height="32" viewBox="0 0 33 32" fill="none" xmlns="http://www.w3.org/2000/svg">
<g clip-path="url(#clip0_1128_6638)">
<path d="M29.8101 6.1V0H14.5701V1.52H8.4701V3.05H3.9001V13.72H2.3801V16.76H0.850098V32H32.8501V6.1H29.8101ZM8.4701 30.48H2.3801V21.33H8.4701V30.48ZM8.4701 19.81H5.4301V4.57H8.4701V19.81ZM10.0001 3.05H14.5701V4.57H11.5201V19.81H10.0001V3.05ZM14.5701 6.1V19.81H13.0501V6.1H14.5701ZM16.0901 30.48H10.0001V21.33H16.0901V30.48ZM31.3301 30.48H17.6201V19.81H16.0901V1.52H28.2801V6.1H23.7101V7.62H31.3301V30.48Z" fill="white"/>
<path d="M28.2801 21.33H26.7601V22.86H28.2801V21.33Z" fill="white"/>
<path d="M28.2801 18.29H26.7601V19.81H28.2801V18.29Z" fill="white"/>
<path d="M26.7601 22.86H23.7101V24.38H26.7601V22.86Z" fill="white"/>
<path d="M23.7101 21.33H22.1901V22.86H23.7101V21.33Z" fill="white"/>
<path d="M23.7101 18.29H22.1901V19.81H23.7101V18.29Z" fill="white"/>
<path d="M23.7101 7.62H22.1901V10.67H23.7101V7.62Z" fill="white"/>
<path d="M22.1902 10.67H20.6602V13.72H22.1902V10.67Z" fill="white"/>
<path d="M20.6601 13.72H19.1401V16.76H20.6601V13.72Z" fill="white"/>
<path d="M20.6601 3.04999H19.1401V4.56999H20.6601V3.04999Z" fill="white"/>
<path d="M19.1401 16.76H17.6201V19.81H19.1401V16.76Z" fill="white"/>
<path d="M14.5701 24.38H11.5201V27.43H14.5701V24.38Z" fill="white"/>
<path d="M6.95015 24.38H3.90015V27.43H6.95015V24.38Z" fill="white"/>
</g>
<defs>
<clipPath id="clip0_1128_6638">
<rect width="32" height="32" fill="white" transform="translate(0.850098)"/>
</clipPath>
</defs>
</svg>
