<svg width="33" height="32" viewBox="0 0 33 32" fill="none" xmlns="http://www.w3.org/2000/svg">
<g clip-path="url(#clip0_1128_6600)">
<path d="M2.3801 30.48H10.0001V32H11.5201V30.48H22.1901V32H23.7101V30.48H31.3301V32H32.8501V0H0.850098V32H2.3801V30.48ZM23.7101 12.19H25.2401V10.67H26.7601V9.14H28.2801V10.67H29.8101V12.19H31.3301V18.29H23.7101V12.19ZM22.1901 28.95H13.0501V21.33H22.1901V28.95ZM16.0901 19.81V16.76H17.6201V19.81H16.0901ZM22.1901 19.81H20.6601V15.24H19.1401V13.72H22.1901V19.81ZM20.6601 1.52H22.1901V6.1H20.6601V1.52ZM20.6601 7.62H22.1901V12.19H20.6601V7.62ZM17.6201 1.52H19.1401V3.05H17.6201V1.52ZM17.6201 4.57H19.1401V6.1H17.6201V4.57ZM17.6201 7.62H19.1401V12.19H17.6201V7.62ZM17.6201 15.24H16.0901V13.72H17.6201V15.24ZM14.5701 1.52H16.0901V6.1H14.5701V1.52ZM14.5701 7.62H16.0901V12.19H14.5701V7.62ZM11.5201 1.52H13.0501V6.1H11.5201V1.52ZM2.3801 1.52H6.9501V3.05H8.4701V6.1H5.4301V4.57H3.9001V6.1H2.3801V1.52ZM2.3801 7.62H11.5201V9.14H13.0501V12.19H10.0001V10.67H8.4701V12.19H2.3801V7.62ZM2.3801 13.72H14.5701V19.81H10.0001V18.29H8.4701V16.76H13.0501V15.24H5.4301V16.76H2.3801V13.72ZM2.3801 18.29H3.9001V19.81H2.3801V18.29ZM2.3801 21.33H11.5201V28.95H2.3801V21.33Z" fill="white"/>
<path d="M29.8101 13.72V12.19H28.2801V10.67H26.7601V12.19H25.2401V13.72H29.8101Z" fill="white"/>
<path d="M16.0901 22.86H14.5701V27.43H16.0901V22.86Z" fill="white"/>
<path d="M11.5201 9.14001H10.0001V10.67H11.5201V9.14001Z" fill="white"/>
<path d="M10.0001 22.86H8.47009V27.43H10.0001V22.86Z" fill="white"/>
<path d="M6.95005 3.04999H5.43005V4.56999H6.95005V3.04999Z" fill="white"/>
</g>
<defs>
<clipPath id="clip0_1128_6600">
<rect width="32" height="32" fill="white" transform="translate(0.850098)"/>
</clipPath>
</defs>
</svg>
