<svg width="33" height="32" viewBox="0 0 33 32" fill="none" xmlns="http://www.w3.org/2000/svg">
<g clip-path="url(#clip0_1128_6383)">
<path d="M32.85 4.57498H31.33V27.425H32.85V4.57498Z" fill="#AD5757"/>
<path d="M31.33 27.425H20.66V28.955H31.33V27.425Z" fill="#AD5757"/>
<path d="M26.76 4.57498H25.24V6.09498H26.76V4.57498Z" fill="#AD5757"/>
<path d="M26.76 13.715H23.71V15.235H26.76V13.715Z" fill="#AD5757"/>
<path d="M26.76 19.805H19.14V21.335H26.76V19.805Z" fill="#AD5757"/>
<path d="M26.76 16.765H19.14V18.285H26.76V16.765Z" fill="#AD5757"/>
<path d="M22.19 13.715H19.14V15.235H22.19V13.715Z" fill="#AD5757"/>
<path d="M25.24 10.665H19.14V12.195H25.24V10.665Z" fill="#AD5757"/>
<path d="M26.76 7.61499H19.14V9.14499H26.76V7.61499Z" fill="#AD5757"/>
<path d="M23.71 4.57498H19.14V6.09498H23.71V4.57498Z" fill="#AD5757"/>
<path d="M28.28 1.52499H17.62V3.04499H28.28V1.52499Z" fill="#AD5757"/>
<path d="M20.66 28.955H13.05V30.475H20.66V28.955Z" fill="#AD5757"/>
<path d="M14.57 13.715H13.05V15.235H14.57V13.715Z" fill="#AD5757"/>
<path d="M14.57 10.665H13.05V12.195H14.57V10.665Z" fill="#AD5757"/>
<path d="M14.57 7.61499H13.05V9.14499H14.57V7.61499Z" fill="#AD5757"/>
<path d="M14.57 4.57498H13.05V6.09498H14.57V4.57498Z" fill="#AD5757"/>
<path d="M13.05 27.425H2.38V28.955H13.05V27.425Z" fill="#AD5757"/>
<path d="M14.57 19.805H10V21.335H14.57V19.805Z" fill="#AD5757"/>
<path d="M14.57 16.765H8.46997V18.285H14.57V16.765Z" fill="#AD5757"/>
<path d="M8.46995 19.805H6.94995V21.335H8.46995V19.805Z" fill="#AD5757"/>
<path d="M6.94999 15.235H8.46999V13.715H9.99999V15.235H11.52V3.04499H16.09V1.52499H5.42999V3.04499H6.94999V15.235Z" fill="#AD5757"/>
<path d="M3.9 25.905H14.57V27.425H19.14V25.905H29.81V4.57498H31.33V3.04498H28.28V24.385H17.62V3.04498H16.09V24.385H5.43V3.04498H2.38V4.57498H3.9V25.905Z" fill="#AD5757"/>
<path d="M2.37998 4.57498H0.849976V27.425H2.37998V4.57498Z" fill="#AD5757"/>
</g>
<defs>
<clipPath id="clip0_1128_6383">
<rect width="32" height="32" fill="white" transform="translate(0.849976)"/>
</clipPath>
</defs>
</svg>
