<?xml version="1.0" standalone="no"?><!DOCTYPE svg PUBLIC "-//W3C//DTD SVG 1.1//EN" "http://www.w3.org/Graphics/SVG/1.1/DTD/svg11.dtd"><svg t="1746414710405" class="icon" viewBox="0 0 2048 1024" version="1.1" xmlns="http://www.w3.org/2000/svg" p-id="3421" xmlns:xlink="http://www.w3.org/1999/xlink" width="400" height="200"><path d="M920.516 418.169l68.867 0 0 216.211-68.867 0 0-216.211Z" fill="#a17575" p-id="3422"></path><path d="M1945.6 113.43 102.4 113.43c-56.32 0-102.4 46.08-102.4 102.4l0 614.4c0 56.32 46.08 102.4 102.4 102.4l1843.2 0c56.32 0 102.4-46.08 102.4-102.4l0-614.4C2048 159.51 2001.92 113.43 1945.6 113.43zM546.817 529.447c-0.039 9.323-7.698 16.919-17.021 16.88l-175.651-0.731-0.731 175.651c-0.039 9.323-7.698 16.919-17.021 16.88l-11.042-0.046c-9.323-0.039-16.919-7.698-16.88-17.021l0.731-175.651-175.651-0.731c-9.323-0.039-16.919-7.698-16.88-17.021l0.046-11.042c0.039-9.323 7.698-16.919 17.021-16.88l175.651 0.731 0.731-175.651c0.039-9.323 7.698-16.919 17.021-16.88l11.042 0.046c9.323 0.039 16.919 7.698 16.88 17.021l-0.731 175.651 175.651 0.731c9.323 0.039 16.919 7.698 16.88 17.021L546.817 529.447zM840.438 651.997c0 37.361-17.092 56.055-51.25 56.055-9.609 1.051-25.625 1.602-48.047 1.602-2.152-14.965-4.805-28.828-8.008-41.641 13.863 0 26.15 0 36.836 0 20.27 1.076 30.43-8.533 30.43-28.828 2.127-61.91 3.203-126.523 3.203-193.789l-48.047 0c0 3.203 0 6.406 0 9.609-1.076 125.998-25.1 214.084-72.07 264.258-12.812-14.965-22.973-26.176-30.43-33.633 40.564-46.971 60.859-124.371 60.859-232.227 0-2.127 0-4.805 0-8.008l-48.047 0 0-40.039 49.648 0c0-22.422 0-45.369 0-68.867l41.641 0 0 68.867 88.086 0C845.242 510.009 843.641 592.214 840.438 651.997zM1031.023 709.653l-41.641 0 0-36.836-68.867 0 0 36.836-40.039 0L880.476 378.13l150.547 0L1031.023 709.653zM1425.07 717.591c-85.34-35.84-139.95-81.92-163.84-139.947-6.83 18.774-17.07 35.84-27.31 51.2-27.31 37.547-73.39 64.854-136.53 85.334l-20.48-34.134c63.14-20.48 105.81-46.08 128-76.8 8.53-11.946 15.36-25.6 20.48-39.253L1085.44 563.991l0-37.547 150.19 0c3.41-17.066 6.82-35.84 6.82-54.613l0-11.947L1109.33 459.884l0-37.546 87.04 0c-13.65-23.894-27.3-44.374-42.66-63.147l35.84-17.067c15.36 20.48 30.72 42.667 46.08 66.56l-25.6 11.947 85.33 0c15.36-23.893 27.31-51.2 39.25-83.627l37.55 10.24c-10.24 27.307-20.48 51.2-34.13 73.387l78.5 0 0 37.547L1278.29 458.178l0 11.946c0 20.48-1.7 37.547-5.12 54.614l163.84 0 0 37.546L1293.65 562.284c20.48 49.494 71.68 88.747 153.6 117.76L1425.07 717.591zM1532.59 714.177l-39.26-17.067c23.9-46.08 46.08-93.867 64.86-141.653l35.84 13.653C1575.25 620.31 1554.77 668.097 1532.59 714.177zM1488.21 468.417l27.31-27.307c25.6 20.48 47.79 40.96 68.27 61.44l-27.31 27.307C1539.41 511.083 1517.23 490.603 1488.21 468.417zM1566.72 434.283c-17.07-18.773-40.96-39.253-71.68-61.44l29.01-27.306c29.02 20.48 52.91 39.253 69.98 61.44L1566.72 434.283zM1860.27 703.938l-262.83 0 0-37.547 112.64 0 0-97.28-92.16 0 0-37.547 92.16 0 0-87.04-102.4 0 0-37.546 105.81 0c-8.53-20.48-15.36-39.254-25.6-58.027l35.84-10.24c11.95 25.6 20.48 47.787 27.31 68.267l100.69 0 0 37.546-102.4 0 0 87.04 90.46 0 0 37.547-90.46 0 0 97.28 110.94 0L1860.27 703.938z" fill="#a17575" p-id="3423"></path></svg>