<svg width="200" height="200" xmlns="http://www.w3.org/2000/svg">
 <g>
  <title>Layer 1</title>
  <g stroke="null">
   <path stroke="null" p-id="3230" fill="#a08282" d="m294.18812,102.49095l-22.20527,0l0,21.56441l22.20527,0l0,-21.56441zm-22.20527,-21.56441l-22.20527,0l0,21.56441l22.20527,0l0,-21.56441zm0,-21.56442l-22.20527,0l0,21.56442l22.20527,0l0,-21.56442zm0,-21.56441l-22.20527,0l0,21.56441l22.20527,0l0,-21.56441zm22.20527,-21.5467l-22.20527,0l0,21.5467l22.20527,0l0,-21.5467zm88.87583,129.36878l-22.18702,0l0,21.56441l22.18702,0l0,-21.56441zm22.20527,-21.56442l-22.20527,0l0,21.56442l22.20527,0l0,-21.56442zm-88.87583,0l-22.20527,0l0,21.56442l22.20527,0l0,-21.56442zm111.0811,-21.56441l-22.20527,0l0,21.56441l22.20527,0l0,-21.56441zm22.31474,-21.56441l-22.20527,0l0,21.56441l22.20527,0l0,-21.56441z"/>
   <path stroke="null" p-id="3231" fill="#a08282" d="m449.78924,80.92654l-22.20527,0l0,21.56441l22.20527,0l0,-21.56441zm0,-21.56442l-22.20527,0l0,21.56442l22.20527,0l0,-21.56442zm0,-21.56441l-22.20527,0l0,21.56441l22.20527,0l0,-21.56441zm-22.31474,-21.5467l-22.20527,0l0,21.5467l22.20527,0l0,-21.5467z"/>
   <path stroke="null" p-id="3232" fill="#a08282" d="m405.26922,16.251l-22.20527,0l0,21.5467l22.20527,0l0,-21.5467zm-22.20527,0l-22.18702,0l0,21.5467l22.18702,0l0,-21.5467zm-44.46528,0l-22.20527,0l0,21.5467l22.20527,0l0,-21.5467zm-22.20527,0l-22.20527,0l0,21.5467l22.20527,0l0,-21.5467zm22.20527,129.36878l-22.20527,0l0,21.56441l22.20527,0l0,-21.56441zm33.39002,-107.82208l-22.20527,0l0,21.56441l22.20527,0l0,-21.56441zm-22.20527,0l-22.20527,0l0,21.56441l22.20527,0l0,-21.56441zm11.09352,129.3865l-22.18703,0l0,21.56442l22.18703,0l0,-21.56442z"/>
   <path stroke="null" p-id="3233" fill="#a08282" d="m427.47449,37.7977l-9.19594,-4.97913l-46.28987,-2.25035l-4.39727,14.90195l-17.80801,0l0,136.93493l11.09352,-15.23862l22.20527,-21.56442l22.20527,-21.56441l22.31475,-21.56442l11.09351,-43.12883l-11.20299,-21.56441l-0.01824,0.01772zm0,43.12883l-22.20527,0l0,-21.56442l22.20527,0l0,21.56442zm-294.1788,64.69325l-22.20527,0l0,21.56441l22.20527,0l0,-21.56441zm22.20527,-21.56442l-22.20527,0l0,21.56442l22.20527,0l0,-21.56442zm-88.89407,0l-22.20527,0l0,21.56442l22.20527,0l0,-21.56442zm-22.20527,-21.56441l-22.20527,0l0,21.56441l22.20527,0l0,-21.56441zm133.30462,0l-22.20527,0l0,21.56441l22.20527,0l0,-21.56441zm-155.50989,-21.56441l-22.18703,0l0,21.56441l22.18703,0l0,-21.56441zm0,-21.56442l-22.18703,0l0,21.56442l22.18703,0l0,-21.56442zm0,-21.56441l-22.18703,0l0,21.56441l22.18703,0l0,-21.56441zm177.80639,43.12883l-22.18703,0l0,21.56441l22.18703,0l0,-21.56441z"/>
   <path stroke="null" p-id="3234" fill="#a08282" d="m200.00273,80.92654l-22.18703,0l0,21.56441l22.18703,0l0,-21.56441zm0,-21.56442l-22.18703,0l0,21.56442l22.18703,0l0,-21.56442zm0,-21.56441l-22.18703,0l0,21.56441l22.18703,0l0,-21.56441zm-22.2965,-21.5467l-22.20527,0l0,21.5467l22.20527,0l0,-21.5467zm-22.20527,0l-22.20527,0l0,21.5467l22.20527,0l0,-21.5467zm-22.20527,0l-22.20527,0l0,21.5467l22.20527,0l0,-21.5467zm-44.48353,0l-22.20527,0l0,21.5467l22.20527,0l0,-21.5467zm-22.20527,0l-22.20527,0l0,21.5467l22.20527,0l0,-21.5467zm-22.20527,0l-22.20527,0l0,21.5467l22.20527,0l0,-21.5467zm44.41054,129.36878l-22.20527,0l0,21.56441l22.20527,0l0,-21.56441zm33.29878,-107.82208l-22.20527,0l0,21.56441l22.20527,0l0,-21.56441zm-22.20527,0l-22.18703,0l0,21.56441l22.18703,0l0,-21.56441zm11.11176,129.3865l-22.20527,0l0,21.56442l22.20527,0l0,-21.56442z"/>
   <path stroke="null" p-id="3235" fill="#a08282" d="m521.75111,80.92654l-22.18703,0l0,21.56441l22.18703,0l0,-21.56441zm0,-21.56442l-22.18703,0l0,21.56442l22.18703,0l0,-21.56442zm0,-21.56441l-22.18703,0l0,21.56441l22.18703,0l0,-21.56441z"/>
   <path stroke="null" p-id="3236" fill="#a08282" d="m699.5575,80.92654l-22.18702,0l0,21.56441l22.18702,0l0,-21.56441z"/>
   <path stroke="null" p-id="3237" fill="#a08282" d="m699.5575,80.92654l-22.18702,0l0,21.56441l22.18702,0l0,-21.56441zm0,-21.56442l-22.18702,0l0,21.56442l22.18702,0l0,-21.56442zm0,-21.56441l-22.18702,0l0,21.56441l22.18702,0l0,-21.56441zm-117.85033,7.67246l17.80801,0l0,136.95265l-11.09351,-15.23862l-22.18703,-21.56442l-22.20527,-21.56441l-22.31475,-21.56442l-11.09351,-43.12883l11.20299,-21.56441l9.19594,-4.97913l46.28987,-2.25035l4.39727,14.90195z"/>
   <path stroke="null" p-id="3238" fill="#a08282" d="m543.95638,102.49095l-22.20527,0l0,21.56441l22.20527,0l0,-21.56441zm0,-86.23995l-22.20527,0l0,21.5467l22.20527,0l0,-21.5467zm88.89407,129.36878l-22.20527,0l0,21.56441l22.20527,0l0,-21.56441zm22.20527,-21.56442l-22.20527,0l0,21.56442l22.20527,0l0,-21.56442zm-88.89407,0l-22.20527,0l0,21.56442l22.20527,0l0,-21.56442zm111.09934,-21.56441l-22.20527,0l0,21.56441l22.20527,0l0,-21.56441zm0,-86.23995l-22.20527,0l0,21.5467l22.20527,0l0,-21.5467zm-22.20527,0l-22.20527,0l0,21.5467l22.20527,0l0,-21.5467zm-22.20527,0l-22.20527,0l0,21.5467l22.20527,0l0,-21.5467zm-44.48353,0l-22.20527,0l0,21.5467l22.20527,0l0,-21.5467z"/>
   <path stroke="null" p-id="3239" fill="#a08282" d="m566.16165,16.251l-22.20527,0l0,21.5467l22.20527,0l0,-21.5467zm22.20527,129.36878l-22.20527,0l0,21.56441l22.20527,0l0,-21.56441z"/>
   <path stroke="null" p-id="3240" fill="#a08282" d="m621.75694,37.7977l-22.18703,0l0,21.56441l22.18703,0l0,-21.56441zm-22.18703,0l-22.20527,0l0,21.56441l22.20527,0l0,-21.56441z"/>
   <path stroke="null" p-id="3241" fill="#a08282" d="m610.66343,167.1842l-22.20527,0l0,21.56442l22.20527,0l0,-21.56442z"/>
   <path stroke="null" p-id="3242" fill="#a08282" d="m677.26099,37.7977l-9.19594,-4.97913l-46.28987,-2.25035l-4.39727,14.90195l-17.80801,0l0,136.93493l11.09351,-15.23862l22.20527,-21.56442l22.20527,-21.56441l22.31475,-21.56442l11.09352,-43.12883l-11.20299,-21.56441l-0.01825,0.01772zm-22.20527,21.56441l-22.20527,0l0,-21.56441l22.20527,0l0,21.56441zm22.20527,21.56442l-22.20527,0l0,-21.56442l22.20527,0l0,21.56442z"/>
  </g>
 </g>

</svg>