<svg width="199.99999999999997" height="199.99999999999997" xmlns="http://www.w3.org/2000/svg">
 <g>
  <title>Layer 1</title>
  <g stroke="null">
   <path stroke="null" p-id="3230" fill="#a08282" d="m294.18812,102.49095l-22.20527,0l0,21.56441l22.20527,0l0,-21.56441zm-22.20527,-21.56441l-22.20527,0l0,21.56441l22.20527,0l0,-21.56441zm0,-21.56442l-22.20527,0l0,21.56442l22.20527,0l0,-21.56442zm0,-21.56441l-22.20527,0l0,21.56441l22.20527,0l0,-21.56441zm22.20527,-21.5467l-22.20527,0l0,21.5467l22.20527,0l0,-21.5467zm88.87583,129.36878l-22.18702,0l0,21.56441l22.18702,0l0,-21.56441zm22.20527,-21.56442l-22.20527,0l0,21.56442l22.20527,0l0,-21.56442zm-88.87583,0l-22.20527,0l0,21.56442l22.20527,0l0,-21.56442zm111.0811,-21.56441l-22.20527,0l0,21.56441l22.20527,0l0,-21.56441zm22.31474,-21.56441l-22.20527,0l0,21.56441l22.20527,0l0,-21.56441z"/>
   <path stroke="null" p-id="3231" fill="#a08282" d="m449.78924,80.92654l-22.20527,0l0,21.56441l22.20527,0l0,-21.56441zm0,-21.56442l-22.20527,0l0,21.56442l22.20527,0l0,-21.56442zm0,-21.56441l-22.20527,0l0,21.56441l22.20527,0l0,-21.56441zm-22.31474,-21.5467l-22.20527,0l0,21.5467l22.20527,0l0,-21.5467z"/>
   <path stroke="null" p-id="3232" fill="#a08282" d="m405.26922,16.251l-22.20527,0l0,21.5467l22.20527,0l0,-21.5467zm-22.20527,0l-22.18702,0l0,21.5467l22.18702,0l0,-21.5467zm-44.46528,0l-22.20527,0l0,21.5467l22.20527,0l0,-21.5467zm-22.20527,0l-22.20527,0l0,21.5467l22.20527,0l0,-21.5467zm22.20527,129.36878l-22.20527,0l0,21.56441l22.20527,0l0,-21.56441zm33.39002,-107.82208l-22.20527,0l0,21.56441l22.20527,0l0,-21.56441zm-22.20527,0l-22.20527,0l0,21.56441l22.20527,0l0,-21.56441zm11.09352,129.3865l-22.18703,0l0,21.56442l22.18703,0l0,-21.56442z"/>
   <path stroke="null" p-id="3233" fill="#a08282" d="m427.47449,37.7977l-9.19594,-4.97913l-46.28987,-2.25035l-4.39727,14.90195l-17.80801,0l0,136.93493l11.09352,-15.23862l22.20527,-21.56442l22.20527,-21.56441l22.31475,-21.56442l11.09351,-43.12883l-11.20299,-21.56441l-0.01824,0.01772zm0,43.12883l-22.20527,0l0,-21.56442l22.20527,0l0,21.56442zm-294.1788,64.69325l-22.20527,0l0,21.56441l22.20527,0l0,-21.56441zm22.20527,-21.56442l-22.20527,0l0,21.56442l22.20527,0l0,-21.56442zm-88.89407,0l-22.20527,0l0,21.56442l22.20527,0l0,-21.56442zm-22.20527,-21.56441l-22.20527,0l0,21.56441l22.20527,0l0,-21.56441zm133.30462,0l-22.20527,0l0,21.56441l22.20527,0l0,-21.56441zm-155.50989,-21.56441l-22.18703,0l0,21.56441l22.18703,0l0,-21.56441zm0,-21.56442l-22.18703,0l0,21.56442l22.18703,0l0,-21.56442zm0,-21.56441l-22.18703,0l0,21.56441l22.18703,0l0,-21.56441zm177.80639,43.12883l-22.18703,0l0,21.56441l22.18703,0l0,-21.56441z"/>
   <path stroke="null" p-id="3234" fill="#a08282" d="m200.00273,80.92654l-22.18703,0l0,21.56441l22.18703,0l0,-21.56441zm0,-21.56442l-22.18703,0l0,21.56442l22.18703,0l0,-21.56442zm0,-21.56441l-22.18703,0l0,21.56441l22.18703,0l0,-21.56441zm-22.2965,-21.5467l-22.20527,0l0,21.5467l22.20527,0l0,-21.5467zm-22.20527,0l-22.20527,0l0,21.5467l22.20527,0l0,-21.5467zm-22.20527,0l-22.20527,0l0,21.5467l22.20527,0l0,-21.5467zm-44.48353,0l-22.20527,0l0,21.5467l22.20527,0l0,-21.5467zm-22.20527,0l-22.20527,0l0,21.5467l22.20527,0l0,-21.5467zm-22.20527,0l-22.20527,0l0,21.5467l22.20527,0l0,-21.5467zm44.41054,129.36878l-22.20527,0l0,21.56441l22.20527,0l0,-21.56441zm33.29878,-107.82208l-22.20527,0l0,21.56441l22.20527,0l0,-21.56441zm-22.20527,0l-22.18703,0l0,21.56441l22.18703,0l0,-21.56441zm11.11176,129.3865l-22.20527,0l0,21.56442l22.20527,0l0,-21.56442z"/>
   <path stroke="null" p-id="3235" fill="#a08282" d="m521.75111,80.92654l-22.18703,0l0,21.56441l22.18703,0l0,-21.56441zm0,-21.56442l-22.18703,0l0,21.56442l22.18703,0l0,-21.56442zm0,-21.56441l-22.18703,0l0,21.56441l22.18703,0l0,-21.56441z"/>
   <path stroke="null" p-id="3236" fill="#a08282" d="m699.5575,80.92654l-22.18702,0l0,21.56441l22.18702,0l0,-21.56441z"/>
   <path stroke="null" p-id="3237" fill="#a08282" d="m699.5575,80.92654l-22.18702,0l0,21.56441l22.18702,0l0,-21.56441zm0,-21.56442l-22.18702,0l0,21.56442l22.18702,0l0,-21.56442zm0,-21.56441l-22.18702,0l0,21.56441l22.18702,0l0,-21.56441zm-117.85033,7.67246l17.80801,0l0,136.95265l-11.09351,-15.23862l-22.18703,-21.56442l-22.20527,-21.56441l-22.31475,-21.56442l-11.09351,-43.12883l11.20299,-21.56441l9.19594,-4.97913l46.28987,-2.25035l4.39727,14.90195z"/>
   <path stroke="null" p-id="3238" fill="#a08282" d="m543.95638,102.49095l-22.20527,0l0,21.56441l22.20527,0l0,-21.56441zm0,-86.23995l-22.20527,0l0,21.5467l22.20527,0l0,-21.5467zm88.89407,129.36878l-22.20527,0l0,21.56441l22.20527,0l0,-21.56441zm22.20527,-21.56442l-22.20527,0l0,21.56442l22.20527,0l0,-21.56442zm-88.89407,0l-22.20527,0l0,21.56442l22.20527,0l0,-21.56442zm111.09934,-21.56441l-22.20527,0l0,21.56441l22.20527,0l0,-21.56441zm0,-86.23995l-22.20527,0l0,21.5467l22.20527,0l0,-21.5467zm-22.20527,0l-22.20527,0l0,21.5467l22.20527,0l0,-21.5467zm-22.20527,0l-22.20527,0l0,21.5467l22.20527,0l0,-21.5467zm-44.48353,0l-22.20527,0l0,21.5467l22.20527,0l0,-21.5467z"/>
   <path stroke="null" p-id="3239" fill="#a08282" d="m566.16165,16.251l-22.20527,0l0,21.5467l22.20527,0l0,-21.5467zm22.20527,129.36878l-22.20527,0l0,21.56441l22.20527,0l0,-21.56441z"/>
   <path stroke="null" p-id="3240" fill="#a08282" d="m621.75694,37.7977l-22.18703,0l0,21.56441l22.18703,0l0,-21.56441zm-22.18703,0l-22.20527,0l0,21.56441l22.20527,0l0,-21.56441z"/>
   <path stroke="null" p-id="3241" fill="#a08282" d="m610.66343,167.1842l-22.20527,0l0,21.56442l22.20527,0l0,-21.56442z"/>
   <path stroke="null" p-id="3242" fill="#a08282" d="m677.26099,37.7977l-9.19594,-4.97913l-46.28987,-2.25035l-4.39727,14.90195l-17.80801,0l0,136.93493l11.09351,-15.23862l22.20527,-21.56442l22.20527,-21.56441l22.31475,-21.56442l11.09352,-43.12883l-11.20299,-21.56441l-0.01825,0.01772zm-22.20527,21.56441l-22.20527,0l0,-21.56441l22.20527,0l0,21.56441zm22.20527,21.56442l-22.20527,0l0,-21.56442l22.20527,0l0,21.56442z"/>
  </g>
  <g stroke="null">
   <path stroke="null" p-id="3230" fill="#da5a5c" d="m969.6237,99.97631l-57.69481,0l0,57.69481l57.69481,0l0,-57.69481zm-57.69481,-57.69481l-57.69482,0l0,57.69481l57.69482,0l0,-57.69481zm0,-57.69482l-57.69482,0l0,57.69482l57.69482,0l0,-57.69482zm0,-57.69481l-57.69482,0l0,57.69481l57.69482,0l0,-57.69481zm57.69481,-57.64741l-57.69481,0l0,57.64741l57.69481,0l0,-57.64741zm230.92148,346.12148l-57.6474,0l0,57.69481l57.6474,0l0,-57.69481zm57.69482,-57.69482l-57.69482,0l0,57.69482l57.69482,0l0,-57.69482zm-230.92148,0l-57.69482,0l0,57.69482l57.69482,0l0,-57.69482zm288.6163,-57.69481l-57.69482,0l0,57.69481l57.69482,0l0,-57.69481zm57.97925,-57.69481l-57.69481,0l0,57.69481l57.69481,0l0,-57.69481z"/>
   <path stroke="null" p-id="3231" fill="#da5a5c" d="m1373.91407,42.2815l-57.69481,0l0,57.69481l57.69481,0l0,-57.69481zm0,-57.69482l-57.69481,0l0,57.69482l57.69481,0l0,-57.69482zm0,-57.69481l-57.69481,0l0,57.69481l57.69481,0l0,-57.69481zm-57.97925,-57.64741l-57.69482,0l0,57.64741l57.69482,0l0,-57.64741z"/>
   <path stroke="null" p-id="3232" fill="#da5a5c" d="m1258.24,-130.75554l-57.69482,0l0,57.64741l57.69482,0l0,-57.64741zm-57.69482,0l-57.6474,0l0,57.64741l57.6474,0l0,-57.64741zm-115.53185,0l-57.69481,0l0,57.64741l57.69481,0l0,-57.64741zm-57.69481,0l-57.69482,0l0,57.64741l57.69482,0l0,-57.64741zm57.69481,346.12148l-57.69481,0l0,57.69481l57.69481,0l0,-57.69481zm86.75556,-288.47407l-57.69482,0l0,57.69481l57.69482,0l0,-57.69481zm-57.69482,0l-57.69481,0l0,57.69481l57.69481,0l0,-57.69481zm28.82371,346.16888l-57.64741,0l0,57.69482l57.64741,0l0,-57.69482z"/>
   <path stroke="null" p-id="3233" fill="#da5a5c" d="m1315.93482,-73.10813l-23.89334,-13.32149l-120.27259,-6.02074l-11.42519,39.86963l-46.26963,0l0,366.36445l28.82371,-40.77037l57.69481,-57.69482l57.69482,-57.69481l57.97926,-57.69482l28.8237,-115.38963l-29.10815,-57.69481l-0.0474,0.04741zm0,115.38963l-57.69482,0l0,-57.69482l57.69482,0l0,57.69482zm-764.34963,173.08444l-57.69482,0l0,57.69481l57.69482,0l0,-57.69481zm57.69481,-57.69482l-57.69481,0l0,57.69482l57.69481,0l0,-57.69482zm-230.96889,0l-57.69481,0l0,57.69482l57.69481,0l0,-57.69482zm-57.69481,-57.69481l-57.69482,0l0,57.69481l57.69482,0l0,-57.69481zm346.35852,0l-57.69482,0l0,57.69481l57.69482,0l0,-57.69481zm-404.05334,-57.69481l-57.64741,0l0,57.69481l57.64741,0l0,-57.69481zm0,-57.69482l-57.64741,0l0,57.69482l57.64741,0l0,-57.69482zm0,-57.69481l-57.64741,0l0,57.69481l57.64741,0l0,-57.69481zm461.98519,115.38963l-57.64741,0l0,57.69481l57.64741,0l0,-57.69481z"/>
   <path stroke="null" p-id="3234" fill="#da5a5c" d="m724.90667,42.2815l-57.64741,0l0,57.69481l57.64741,0l0,-57.69481zm0,-57.69482l-57.64741,0l0,57.69482l57.64741,0l0,-57.69482zm0,-57.69481l-57.64741,0l0,57.69481l57.64741,0l0,-57.69481zm-57.93185,-57.64741l-57.69482,0l0,57.64741l57.69482,0l0,-57.64741zm-57.69482,0l-57.69481,0l0,57.64741l57.69481,0l0,-57.64741zm-57.69481,0l-57.69482,0l0,57.64741l57.69482,0l0,-57.64741zm-115.57926,0l-57.69482,0l0,57.64741l57.69482,0l0,-57.64741zm-57.69482,0l-57.69481,0l0,57.64741l57.69481,0l0,-57.64741zm-57.69481,0l-57.69482,0l0,57.64741l57.69482,0l0,-57.64741zm115.38963,346.12148l-57.69482,0l0,57.69481l57.69482,0l0,-57.69481zm86.51851,-288.47407l-57.69481,0l0,57.69481l57.69481,0l0,-57.69481zm-57.69481,0l-57.64741,0l0,57.69481l57.64741,0l0,-57.69481zm28.87111,346.16888l-57.69481,0l0,57.69482l57.69481,0l0,-57.69482z"/>
   <path stroke="null" p-id="3235" fill="#da5a5c" d="m1560.88889,42.2815l-57.64741,0l0,57.69481l57.64741,0l0,-57.69481zm0,-57.69482l-57.64741,0l0,57.69482l57.64741,0l0,-57.69482zm0,-57.69481l-57.64741,0l0,57.69481l57.64741,0l0,-57.69481z"/>
   <path stroke="null" p-id="3236" fill="#da5a5c" d="m2022.87407,42.2815l-57.6474,0l0,57.69481l57.6474,0l0,-57.69481z"/>
   <path stroke="null" p-id="3237" fill="#da5a5c" d="m2022.87407,42.2815l-57.6474,0l0,57.69481l57.6474,0l0,-57.69481zm0,-57.69482l-57.6474,0l0,57.69482l57.6474,0l0,-57.69482zm0,-57.69481l-57.6474,0l0,57.69481l57.6474,0l0,-57.69481zm-306.20444,20.5274l46.26963,0l0,366.41186l-28.8237,-40.77037l-57.64741,-57.69482l-57.69482,-57.69481l-57.97926,-57.69482l-28.8237,-115.38963l29.10815,-57.69481l23.89333,-13.32149l120.27259,-6.02074l11.42519,39.86963z"/>
   <path stroke="null" p-id="3238" fill="#da5a5c" d="m1618.5837,99.97631l-57.69481,0l0,57.69481l57.69481,0l0,-57.69481zm0,-230.73185l-57.69481,0l0,57.64741l57.69481,0l0,-57.64741zm230.96889,346.12148l-57.69481,0l0,57.69481l57.69481,0l0,-57.69481zm57.69482,-57.69482l-57.69482,0l0,57.69482l57.69482,0l0,-57.69482zm-230.96889,0l-57.69482,0l0,57.69482l57.69482,0l0,-57.69482zm288.6637,-57.69481l-57.69481,0l0,57.69481l57.69481,0l0,-57.69481zm0,-230.73185l-57.69481,0l0,57.64741l57.69481,0l0,-57.64741zm-57.69481,0l-57.69482,0l0,57.64741l57.69482,0l0,-57.64741zm-57.69482,0l-57.69481,0l0,57.64741l57.69481,0l0,-57.64741zm-115.57926,0l-57.69481,0l0,57.64741l57.69481,0l0,-57.64741z"/>
   <path stroke="null" p-id="3239" fill="#da5a5c" d="m1676.27852,-130.75554l-57.69482,0l0,57.64741l57.69482,0l0,-57.64741zm57.69481,346.12148l-57.69481,0l0,57.69481l57.69481,0l0,-57.69481z"/>
   <path stroke="null" p-id="3240" fill="#da5a5c" d="m1820.72889,-73.10813l-57.64741,0l0,57.69481l57.64741,0l0,-57.69481zm-57.64741,0l-57.69481,0l0,57.69481l57.69481,0l0,-57.69481z"/>
   <path stroke="null" p-id="3241" fill="#da5a5c" d="m1791.90519,273.06075l-57.69482,0l0,57.69482l57.69482,0l0,-57.69482z"/>
   <path stroke="null" p-id="3242" fill="#da5a5c" d="m1964.94222,-73.10813l-23.89333,-13.32149l-120.27259,-6.02074l-11.42519,39.86963l-46.26963,0l0,366.36445l28.8237,-40.77037l57.69482,-57.69482l57.69481,-57.69481l57.97926,-57.69482l28.82371,-115.38963l-29.10815,-57.69481l-0.04741,0.04741zm-57.69481,57.69481l-57.69482,0l0,-57.69481l57.69482,0l0,57.69481zm57.69481,57.69482l-57.69481,0l0,-57.69482l57.69481,0l0,57.69482z"/>
  </g>
  <g stroke="null">
   <path stroke="null" p-id="3230" fill="#da5a5c" d="m-205.86127,103.32441l-22.3133,0l0,21.52504l22.3133,0l0,-21.52504zm-22.3133,-21.52504l-22.3133,0l0,21.52504l22.3133,0l0,-21.52504zm0,-21.52505l-22.3133,0l0,21.52505l22.3133,0l0,-21.52505zm0,-21.52504l-22.3133,0l0,21.52504l22.3133,0l0,-21.52504zm22.3133,-21.50736l-22.3133,0l0,21.50736l22.3133,0l0,-21.50736zm89.3082,129.13257l-22.29496,0l0,21.52504l22.29496,0l0,-21.52504zm22.3133,-21.52505l-22.3133,0l0,21.52505l22.3133,0l0,-21.52505zm-89.3082,0l-22.3133,0l0,21.52505l22.3133,0l0,-21.52505zm111.6215,-21.52504l-22.3133,0l0,21.52504l22.3133,0l0,-21.52504zm22.4233,-21.52504l-22.3133,0l0,21.52504l22.3133,0l0,-21.52504z"/>
   <path stroke="null" p-id="3231" fill="#da5a5c" d="m-49.50316,81.79937l-22.3133,0l0,21.52504l22.3133,0l0,-21.52504zm0,-21.52505l-22.3133,0l0,21.52505l22.3133,0l0,-21.52505zm0,-21.52504l-22.3133,0l0,21.52504l22.3133,0l0,-21.52504zm-22.4233,-21.50736l-22.3133,0l0,21.50736l22.3133,0l0,-21.50736z"/>
   <path stroke="null" p-id="3232" fill="#da5a5c" d="m-94.23977,17.24192l-22.3133,0l0,21.50736l22.3133,0l0,-21.50736zm-22.3133,0l-22.29496,0l0,21.50736l22.29496,0l0,-21.50736zm-44.6816,0l-22.3133,0l0,21.50736l22.3133,0l0,-21.50736zm-22.3133,0l-22.3133,0l0,21.50736l22.3133,0l0,-21.50736zm22.3133,129.13257l-22.3133,0l0,21.52504l22.3133,0l0,-21.52504zm33.55246,-107.62522l-22.3133,0l0,21.52504l22.3133,0l0,-21.52504zm-22.3133,0l-22.3133,0l0,21.52504l22.3133,0l0,-21.52504zm11.14748,129.15026l-22.29497,0l0,21.52505l22.29497,0l0,-21.52505z"/>
   <path stroke="null" p-id="3233" fill="#da5a5c" d="m-71.92647,38.74928l-9.24068,-4.97004l-46.51507,-2.24625l-4.41866,14.87474l-17.89464,0l0,136.68491l11.14748,-15.21079l22.3133,-21.52505l22.3133,-21.52504l22.42331,-21.52505l11.14748,-43.05009l-11.25749,-21.52504l-0.01833,0.01769zm0,43.05009l-22.3133,0l0,-21.52505l22.3133,0l0,21.52505zm-295.60997,64.57513l-22.3133,0l0,21.52504l22.3133,0l0,-21.52504zm22.3133,-21.52505l-22.3133,0l0,21.52505l22.3133,0l0,-21.52505zm-89.32654,0l-22.3133,0l0,21.52505l22.3133,0l0,-21.52505zm-22.3133,-21.52504l-22.3133,0l0,21.52504l22.3133,0l0,-21.52504zm133.95314,0l-22.3133,0l0,21.52504l22.3133,0l0,-21.52504zm-156.26644,-21.52504l-22.29497,0l0,21.52504l22.29497,0l0,-21.52504zm0,-21.52505l-22.29497,0l0,21.52505l22.29497,0l0,-21.52505zm0,-21.52504l-22.29497,0l0,21.52504l22.29497,0l0,-21.52504zm178.67141,43.05009l-22.29497,0l0,21.52504l22.29497,0l0,-21.52504z"/>
   <path stroke="null" p-id="3234" fill="#da5a5c" d="m-300.50486,81.79937l-22.29497,0l0,21.52504l22.29497,0l0,-21.52504zm0,-21.52505l-22.29497,0l0,21.52505l22.29497,0l0,-21.52505zm0,-21.52504l-22.29497,0l0,21.52504l22.29497,0l0,-21.52504zm-22.40497,-21.50736l-22.3133,0l0,21.50736l22.3133,0l0,-21.50736zm-22.3133,0l-22.3133,0l0,21.50736l22.3133,0l0,-21.50736zm-22.3133,0l-22.3133,0l0,21.50736l22.3133,0l0,-21.50736zm-44.69994,0l-22.3133,0l0,21.50736l22.3133,0l0,-21.50736zm-22.3133,0l-22.3133,0l0,21.50736l22.3133,0l0,-21.50736zm-22.3133,0l-22.3133,0l0,21.50736l22.3133,0l0,-21.50736zm44.6266,129.13257l-22.3133,0l0,21.52504l22.3133,0l0,-21.52504zm33.46078,-107.62522l-22.3133,0l0,21.52504l22.3133,0l0,-21.52504zm-22.3133,0l-22.29497,0l0,21.52504l22.29497,0l0,-21.52504zm11.16582,129.15026l-22.3133,0l0,21.52505l22.3133,0l0,-21.52505z"/>
   <path stroke="null" p-id="3235" fill="#da5a5c" d="m22.8088,81.79937l-22.29497,0l0,21.52504l22.29497,0l0,-21.52504zm0,-21.52505l-22.29497,0l0,21.52505l22.29497,0l0,-21.52505zm0,-21.52504l-22.29497,0l0,21.52504l22.29497,0l0,-21.52504z"/>
   <path stroke="null" p-id="3236" fill="#da5a5c" d="m201.48021,81.79937l-22.29496,0l0,21.52504l22.29496,0l0,-21.52504z"/>
   <path stroke="null" p-id="3237" fill="#da5a5c" d="m201.48021,81.79937l-22.29496,0l0,21.52504l22.29496,0l0,-21.52504zm0,-21.52505l-22.29496,0l0,21.52505l22.29496,0l0,-21.52505zm0,-21.52504l-22.29496,0l0,21.52504l22.29496,0l0,-21.52504zm-118.42367,7.65846l17.89464,0l0,136.7026l-11.14748,-15.21079l-22.29497,-21.52505l-22.3133,-21.52504l-22.42331,-21.52505l-11.14748,-43.05009l11.25749,-21.52504l9.24068,-4.97004l46.51507,-2.24625l4.41866,14.87474z"/>
   <path stroke="null" p-id="3238" fill="#da5a5c" d="m45.1221,103.32441l-22.3133,0l0,21.52504l22.3133,0l0,-21.52504zm0,-86.08249l-22.3133,0l0,21.50736l22.3133,0l0,-21.50736zm89.32654,129.13257l-22.3133,0l0,21.52504l22.3133,0l0,-21.52504zm22.3133,-21.52505l-22.3133,0l0,21.52505l22.3133,0l0,-21.52505zm-89.32654,0l-22.3133,0l0,21.52505l22.3133,0l0,-21.52505zm111.63984,-21.52504l-22.3133,0l0,21.52504l22.3133,0l0,-21.52504zm0,-86.08249l-22.3133,0l0,21.50736l22.3133,0l0,-21.50736zm-22.3133,0l-22.3133,0l0,21.50736l22.3133,0l0,-21.50736zm-22.3133,0l-22.3133,0l0,21.50736l22.3133,0l0,-21.50736zm-44.69994,0l-22.3133,0l0,21.50736l22.3133,0l0,-21.50736z"/>
   <path stroke="null" p-id="3239" fill="#da5a5c" d="m67.4354,17.24192l-22.3133,0l0,21.50736l22.3133,0l0,-21.50736zm22.3133,129.13257l-22.3133,0l0,21.52504l22.3133,0l0,-21.52504z"/>
   <path stroke="null" p-id="3240" fill="#da5a5c" d="m123.30115,38.74928l-22.29497,0l0,21.52504l22.29497,0l0,-21.52504zm-22.29497,0l-22.3133,0l0,21.52504l22.3133,0l0,-21.52504z"/>
   <path stroke="null" p-id="3241" fill="#da5a5c" d="m112.15367,167.89954l-22.3133,0l0,21.52505l22.3133,0l0,-21.52505z"/>
   <path stroke="null" p-id="3242" fill="#da5a5c" d="m179.07524,38.74928l-9.24068,-4.97004l-46.51507,-2.24625l-4.41866,14.87474l-17.89464,0l0,136.68491l11.14748,-15.21079l22.3133,-21.52505l22.3133,-21.52504l22.42331,-21.52505l11.14748,-43.05009l-11.25749,-21.52504l-0.01834,0.01769zm-22.3133,21.52504l-22.3133,0l0,-21.52504l22.3133,0l0,21.52504zm22.3133,21.52505l-22.3133,0l0,-21.52505l22.3133,0l0,21.52505z"/>
  </g>
 </g>

</svg>