<?xml version="1.0" standalone="no"?><!DOCTYPE svg PUBLIC "-//W3C//DTD SVG 1.1//EN" "http://www.w3.org/Graphics/SVG/1.1/DTD/svg11.dtd"><svg t="1745848367422" class="icon" viewBox="0 0 1024 1024" version="1.1" xmlns="http://www.w3.org/2000/svg" p-id="18108" xmlns:xlink="http://www.w3.org/1999/xlink" width="200" height="200"><path d="M815.6 930H342.3c-8.2 0-14.8-6.6-14.8-14.7V284.6c0-8.1 6.6-14.7 14.8-14.7h103.5c8.2 0 14.8 6.6 14.8 14.7V646l148-146.3 147.7 147v-362c0-3.9 1.6-7.6 4.3-10.4 2.8-2.7 6.5-4.3 10.5-4.3h88.7c8.2 0 14.8 6.6 14.8 14.7v586.7c0.1 32.3-26.5 58.6-59 58.6zM682.5 240.6c8.2 0 14.8 6.6 14.8 14.7v249.4l-88.4-88-89 88V255.3c0-8.1 6.6-14.7 14.8-14.7h147.8zM209.2 182v58.7c0 16.1 13.3 29.3 29.6 29.3h14.8c8.2 0 14.8 6.6 14.8 14.7v630.8c0 3.9-1.6 7.6-4.3 10.4-2.8 2.8-6.5 4.3-10.5 4.3h-44.4c-32.5 0-59.2-26.4-59.2-58.7V152.6c0-32.3 26.6-58.7 59.2-58.7h606.3c32.5 0 59.2 26.4 59.2 58.7H238.8c-16.3 0-29.6 13.2-29.6 29.4z" p-id="18109" fill="#d46b6a"></path></svg>