<?xml version="1.0" standalone="no"?><!DOCTYPE svg PUBLIC "-//W3C//DTD SVG 1.1//EN" "http://www.w3.org/Graphics/SVG/1.1/DTD/svg11.dtd"><svg t="1745848275270" class="icon" viewBox="0 0 1024 1024" version="1.1" xmlns="http://www.w3.org/2000/svg" p-id="7753" xmlns:xlink="http://www.w3.org/1999/xlink" width="200" height="200"><path d="M871.65 64l-180.87 88.35v90.56l-96.71 96.71 90.56 90.56 96.71-96.71h90.56l88.34-180.88L871.65 64zM76.31 821.45c-8.37 8.37-12.55 18.95-12.55 31.5s4.18 23.13 12.55 31.5l63 63c8.37 8.37 18.95 12.55 31.5 12.55s23.13-4.18 31.5-12.55L448.4 703.34 322.15 574.88 76.31 821.45z m871.13 62.99l-63 63c-8.37 8.37-18.95 12.55-31.5 12.55s-23.13-4.18-31.5-12.55l-534.5-532.28c-14.03 4.18-28.79 6.4-44.3 6.4-29.53 0-56.85-6.64-81.95-19.93-25.35-13.29-46.26-31.5-63-54.63-16.74-23.13-27.32-48.97-31.5-77.76s-2.21-57.09 6.4-85.14l115.66 113.69 109.51-109.51L184.08 72.62c28.05-8.37 56.35-10.58 85.14-6.4s54.63 14.77 77.76 31.5c23.13 16.73 41.34 37.9 54.63 63 13.29 25.35 19.93 52.66 19.93 81.95 0 15.5-2.21 30.27-6.4 44.3l532.28 534.5c8.37 8.37 12.55 18.95 12.55 31.5 0.02 12.54-4.16 23.11-12.53 31.47z" p-id="7754" fill="#f3ddb7"></path></svg>