<svg width="124" height="59" xmlns="http://www.w3.org/2000/svg">
 <g>
  <title>Layer 1</title>
  <g>
   <g>
    <title>Layer 1</title>
    <g id="svg_3">
     <g stroke="null">
      <path d="m209.22789,175.37929l-116.55175,0a10.72276,9.44731 0 0 0 -10.67614,9.40623l0,433.01515c0,5.17548 4.80194,9.40623 10.67614,9.40623l23.75324,0a9.62717,8.48204 0 0 0 9.41738,-7.0444a33.12401,29.18396 0 0 1 32.40139,-22.73514c15.68786,0 28.88152,9.54999 32.33146,22.32439a9.58055,8.44096 0 0 0 9.48731,7.45516c0.37297,0 0.62938,0 1.02566,-0.08216l6.64344,0c0.48952,0.06161 0.97904,0.08215 1.49187,0.08216l23.75324,0c0.4662,0 0.88579,-0.04108 1.32869,-0.08216l1.23545,0a9.62717,8.48204 0 0 0 9.18427,-6.85956a33.17063,29.22503 0 0 1 29.13794,-22.81729l0.93242,0c15.68786,0 28.88152,9.54999 32.33146,22.30385a9.58055,8.44096 0 0 0 9.48731,7.45516c0.37296,0 0.62938,0 1.02565,-0.08216l34.4527,0a9.27752,8.17397 0 0 0 0.76924,-0.06161l3.68304,0a9.74372,8.58472 0 0 0 9.37075,-7.45515l0.09325,0a33.17063,29.22503 0 0 1 30.02373,-22.24224c14.84869,0.86258 27.04,10.26881 30.16359,22.57084a9.55724,8.42042 0 0 0 9.41738,7.12655l42.51807,0a9.48731,8.35881 0 0 0 8.97449,-7.18817a33.19394,29.24557 0 0 1 30.09366,-22.50923c14.52235,0.88312 26.41063,9.85806 29.90718,21.85203a9.65048,8.50257 0 0 0 9.51063,7.84537l4.45227,0a11.67848,10.28935 0 0 0 2.704,0l30.90952,0a9.48731,8.35881 0 0 0 8.97448,-7.18817c3.42662,-12.91816 16.52704,-22.59138 32.4247,-22.59138c15.3149,0 28.20552,9.09817 32.07504,21.4002a10.90924,9.6116 0 0 0 12.51765,8.33827l0.30304,-0.04107l19.74386,0a10.72276,9.44731 0 0 0 10.65282,-9.40623l0,-432.85085a10.55959,9.30354 0 0 0 -10.55958,-9.34462l-116.50512,0l-375.11014,0l0.02331,0l0.00001,0z" fill="#c08889" p-id="2175" stroke="null"/>
     </g>
     <rect fill="#cfecf0" x="82.38976" y="172.79309" width="629.00003" height="398" id="svg_4" stroke-width="0" stroke="#000"/>
    </g>
   </g>
  </g>
  <g stroke="null">
   <g stroke="null">
    <title stroke="null">Layer 1</title>
    <g stroke="null" id="svg_5">
     <g stroke="null">
      <path stroke="null" d="m25.11017,-17.14842l-22.92674,0a2.10926,1.58865 0 0 0 -2.10009,1.58174l0,72.81546c0,0.8703 0.94458,1.58174 2.10009,1.58174l4.67247,0a1.89375,1.42633 0 0 0 1.85248,-1.18458a6.51578,4.90755 0 0 1 6.37363,-3.82312c3.08594,0 5.68125,1.60592 6.35988,3.75405a1.88458,1.41942 0 0 0 1.86624,1.25365c0.07337,0 0.1238,0 0.20176,-0.01382l1.30682,0c0.09629,0.01036 0.19259,0.01381 0.29346,0.01382l4.67247,0c0.09171,0 0.17424,-0.00691 0.26136,-0.01382l0.24302,0a1.89375,1.42633 0 0 0 1.80663,-1.1535a6.52495,4.91446 0 0 1 5.73169,-3.83694l0.18342,0c3.08594,0 5.68125,1.60592 6.35988,3.7506a1.88458,1.41942 0 0 0 1.86624,1.25365c0.07336,0 0.1238,0 0.20175,-0.01382l6.77715,0a1.82497,1.37453 0 0 0 0.15132,-0.01036l0.72449,0a1.91667,1.4436 0 0 0 1.84331,-1.25365l0.01834,0a6.52495,4.91446 0 0 1 5.90593,-3.74024c2.92087,0.14505 5.319,1.72679 5.93344,3.79549a1.87999,1.41597 0 0 0 1.85248,1.19839l8.36367,0a1.86624,1.40561 0 0 0 1.76536,-1.20876a6.52954,4.91791 0 0 1 5.91968,-3.78513c2.85667,0.1485 5.1952,1.65772 5.883,3.67462a1.89833,1.42979 0 0 0 1.87082,1.31927l0.8758,0a2.29726,1.73025 0 0 0 0.5319,0l6.08017,0a1.86624,1.40561 0 0 0 1.76536,-1.20876c0.67405,-2.17231 3.25101,-3.79895 6.37822,-3.79895c3.01257,0 5.54827,1.52994 6.30944,3.59864a2.14594,1.61628 0 0 0 2.46233,1.40216l0.05961,-0.00691l3.88379,0a2.10926,1.58865 0 0 0 2.0955,-1.58174l0,-72.78784a2.07716,1.56448 0 0 0 -2.07716,-1.57138l-22.91757,0l-73.78742,0l0.00459,0l0,0z" fill="#c08889" p-id="2175"/>
     </g>
     <rect stroke="#000" fill="#cfecf0" x="0.16001" y="-17.58331" width="123.72977" height="66.92735" id="svg_6" stroke-width="0"/>
    </g>
   </g>
  </g>
  <g transform="rotate(-180 60.344 18.5077)" stroke="null">
   <path stroke="null" p-id="2175" fill="#c08889" d="m22.04275,-14.18592l-23.81329,0a2.19082,1.36719 0 0 0 -2.1813,1.36124l0,62.66468c0,0.74898 0.98111,1.36124 2.1813,1.36124l4.85315,0a1.96698,1.2275 0 0 0 1.92411,-1.01945a6.76774,4.22342 0 0 1 6.62009,-3.29016c3.20527,0 5.90093,1.38205 6.60581,3.23072a1.95745,1.22155 0 0 0 1.9384,1.07889c0.0762,0 0.12859,0 0.20956,-0.01189l1.35736,0c0.10002,0.00892 0.20003,0.01189 0.30481,0.01189l4.85315,0c0.09525,0 0.18098,-0.00595 0.27147,-0.01189l0.25242,0a1.96698,1.2275 0 0 0 1.87649,-0.9927a6.77726,4.22936 0 0 1 5.95332,-3.30205l0.19051,0c3.20527,0 5.90093,1.38205 6.60581,3.22775a1.95745,1.22155 0 0 0 1.9384,1.07889c0.0762,0 0.12859,0 0.20956,-0.01189l7.03921,0a1.89554,1.18291 0 0 0 0.15717,-0.00892l0.7525,0a1.99079,1.24236 0 0 0 1.91459,-1.07889l0.01905,0a6.77726,4.22936 0 0 1 6.1343,-3.21883c3.03381,0.12483 5.52468,1.48607 6.16288,3.26639a1.95269,1.21858 0 0 0 1.92411,1.03133l8.68709,0a1.9384,1.20966 0 0 0 1.83362,-1.04025a6.78202,4.23233 0 0 1 6.14859,-3.25747c2.96714,0.1278 5.39609,1.42663 6.11049,3.16236a1.97174,1.23047 0 0 0 1.94317,1.13536l0.90967,0a2.38609,1.48904 0 0 0 0.55247,0l6.31528,0a1.9384,1.20966 0 0 0 1.83362,-1.04025c0.70011,-1.86948 3.37672,-3.26936 6.62486,-3.26936c3.12907,0 5.76282,1.31666 6.55342,3.09697a2.22892,1.39096 0 0 0 2.55755,1.20669l0.06192,-0.00594l4.03397,0a2.19082,1.36719 0 0 0 2.17653,-1.36124l0,-62.6409a2.15748,1.34638 0 0 0 -2.15748,-1.35233l-23.80376,0l-76.64068,0l0.00476,0z"/>
  </g>
 </g>

</svg>