<svg width="18" height="45.00000000000001" xmlns="http://www.w3.org/2000/svg">
 <g>
  <title>Layer 1</title>
  <g id="svg_1">
   <g id="svg_2">
    <title>Layer 1</title>
    <g id="svg_3">
     <g id="svg_5" stroke="null">
      <path id="svg_6" stroke="null" p-id="2175" fill="#c08889" d="m209.22789,175.37929l-116.55175,0a10.72276,9.44731 0 0 0 -10.67614,9.40623l0,433.01515c0,5.17548 4.80194,9.40623 10.67614,9.40623l23.75324,0a9.62717,8.48204 0 0 0 9.41738,-7.0444a33.12401,29.18396 0 0 1 32.40139,-22.73514c15.68786,0 28.88152,9.54999 32.33146,22.32439a9.58055,8.44096 0 0 0 9.48731,7.45516c0.37297,0 0.62938,0 1.02566,-0.08216l6.64344,0c0.48952,0.06161 0.97904,0.08215 1.49187,0.08216l23.75324,0c0.4662,0 0.88579,-0.04108 1.32869,-0.08216l1.23545,0a9.62717,8.48204 0 0 0 9.18427,-6.85956a33.17063,29.22503 0 0 1 29.13794,-22.81729l0.93242,0c15.68786,0 28.88152,9.54999 32.33146,22.30385a9.58055,8.44096 0 0 0 9.48731,7.45516c0.37296,0 0.62938,0 1.02565,-0.08216l34.4527,0a9.27752,8.17397 0 0 0 0.76924,-0.06161l3.68304,0a9.74372,8.58472 0 0 0 9.37075,-7.45515l0.09325,0a33.17063,29.22503 0 0 1 30.02373,-22.24224c14.84869,0.86258 27.04,10.26881 30.16359,22.57084a9.55724,8.42042 0 0 0 9.41738,7.12655l42.51807,0a9.48731,8.35881 0 0 0 8.97449,-7.18817a33.19394,29.24557 0 0 1 30.09366,-22.50923c14.52235,0.88312 26.41063,9.85806 29.90718,21.85203a9.65048,8.50257 0 0 0 9.51063,7.84537l4.45227,0a11.67848,10.28935 0 0 0 2.704,0l30.90952,0a9.48731,8.35881 0 0 0 8.97448,-7.18817c3.42662,-12.91816 16.52704,-22.59138 32.4247,-22.59138c15.3149,0 28.20552,9.09817 32.07504,21.4002a10.90924,9.6116 0 0 0 12.51765,8.33827l0.30304,-0.04107l19.74386,0a10.72276,9.44731 0 0 0 10.65282,-9.40623l0,-432.85085a10.55959,9.30354 0 0 0 -10.55958,-9.34462l-116.50512,0l-375.11014,0l0.02331,0l0.00001,0z"/>
     </g>
     <rect stroke="#000" stroke-width="0" id="svg_4" height="398" width="629.00003" y="172.79309" x="82.38976" fill="#cfecf0"/>
    </g>
   </g>
  </g>
  <rect stroke="null" id="svg_14" height="33.16662" width="3.16666" y="6.26669" x="0.00001" stroke-width="0" fill="#a7706f"/>
  <rect stroke="null" id="svg_15" height="29.66663" width="3.5" y="7.43335" x="7.5" stroke-width="0" fill="#df7270"/>
  <rect stroke="null" id="svg_19" height="27.3333" width="3.33333" y="8.60002" x="15.66665" stroke-width="0" fill="#ffe4b0"/>
 </g>

</svg>