<?xml version="1.0" standalone="no"?><!DOCTYPE svg PUBLIC "-//W3C//DTD SVG 1.1//EN" "http://www.w3.org/Graphics/SVG/1.1/DTD/svg11.dtd"><svg t="1746011003664" class="icon" viewBox="0 0 1024 1024" version="1.1" xmlns="http://www.w3.org/2000/svg" p-id="38628" xmlns:xlink="http://www.w3.org/1999/xlink" width="200" height="200"><path d="M300.5 402.3c-4.7 10.4-16.3 14.6-26.4 10.8-10.1-4.5-14.6-16.3-10.6-26.2 5.9-13.9 13.5-27.4 21.5-39.6 8.5-12.8 18.2-24.3 28.8-34.9 10.6-10.8 22.4-20.5 34.7-28.8 12.5-8.7 25.7-15.6 39.8-21.7 10.1-4.2 21.7 0.5 25.9 10.9 4.7 10.1-0.5 21.9-10.6 26.2-11.3 4.2-22.4 10.4-32.6 17.9-10.6 6.6-20 14.6-29.2 23.4-8.3 8.7-16.5 18.6-23.8 29.2-7.1 10.4-12.8 21.5-17.5 32.8z m457.6 307.3l143.4 143.1c13 13.2 13 34 0.3 47.1-13 13-34 13-46.9 0.5L711.1 756.5c-27.6 22.6-59.2 42.2-93.2 56.1-42.7 17.5-89.7 27.6-138.2 27.6-49 0-95.8-10.1-138.7-27.6l-0.2-0.2v0.2c-44.3-18.2-84-45.3-117.5-78.8-33.5-33-60.1-72.6-78.8-116.9l-0.5-2.4c-17.5-42.2-26.7-88.2-26.7-136.5 0-48.8 9.7-95.7 27.1-138.4 18.7-44.6 45.3-84.4 78.8-117.7 65.8-65.8 156.4-106.1 256.4-106.1 48.4 0 95.3 9.9 138.2 27.4v0.2-0.2c44.8 18.4 84.4 45.3 117.9 78.7l1.2 1.7c32.8 33.2 59 72.4 77.2 116l0.9 1.7c17 42.7 26.9 88.9 26.9 136.8 0 49-9.9 95.7-27.8 138.9-13.8 33.3-32.9 64.7-56 92.6zM592.5 204.4c-34.7-14.4-72.6-22.2-112.7-22.2-82.1 0-155.9 33.2-209.5 86.5-27.4 27.6-49 60.1-64.4 96-13.9 34.7-22.2 72.9-22.2 113.2 0 39.6 7.8 77.4 21.7 111.3l0.5 1.9c15.3 36.1 37 68.4 64.4 95.7v0.2c27.1 27.1 59.7 49.3 96.3 64.1v0.5c34.4 13.9 72.9 21.7 113.2 21.7 40.1 0 78.1-7.8 112.7-22.2 36.3-14.8 68.9-36.6 95.5-63.7l0.5-0.5 0.2-0.2c27.1-27.1 49.3-59.7 64.2-95.7 14.4-34.9 22.6-73.1 22.6-113.2 0-39.6-8.3-77.1-21.7-111.5l-0.9-1.7c-14.9-35.4-36.1-67.5-62.3-94.1l-2.1-1.9c-27.1-27.1-59.7-48.8-96-64.2zM674.1 478c0-11.1 8.7-20 20.1-20 10.8 0 20 9 20 20 0 30.4-6.1 61.1-17.9 89.8l-0.5 0.7c-11.3 27.4-28.3 53-50.4 75.2-22.2 22.2-48.4 39.1-76.2 50.4-28.5 12.3-59.2 18.4-89.4 18.4-11.3 0-20.3-9.2-20.3-20.1 0-11.3 9-20 20.3-20 25.3 0 50.9-4.7 74.5-14.8 22.7-9.4 44.3-23.4 62.7-41.7 18.6-18.9 32.5-39.6 41.7-62.2l0.5-1.4c10-23.4 14.9-48.6 14.9-74.3z" fill="#bfa4a4" p-id="38629"></path></svg>