<svg width="136" height="68" xmlns="http://www.w3.org/2000/svg">
 <g>
  <title>Layer 1</title>
  <g>
   <g>
    <title>Layer 1</title>
    <g id="svg_3">
     <g stroke="null">
      <path d="m209.22789,175.37929l-116.55175,0a10.72276,9.44731 0 0 0 -10.67614,9.40623l0,433.01515c0,5.17548 4.80194,9.40623 10.67614,9.40623l23.75324,0a9.62717,8.48204 0 0 0 9.41738,-7.0444a33.12401,29.18396 0 0 1 32.40139,-22.73514c15.68786,0 28.88152,9.54999 32.33146,22.32439a9.58055,8.44096 0 0 0 9.48731,7.45516c0.37297,0 0.62938,0 1.02566,-0.08216l6.64344,0c0.48952,0.06161 0.97904,0.08215 1.49187,0.08216l23.75324,0c0.4662,0 0.88579,-0.04108 1.32869,-0.08216l1.23545,0a9.62717,8.48204 0 0 0 9.18427,-6.85956a33.17063,29.22503 0 0 1 29.13794,-22.81729l0.93242,0c15.68786,0 28.88152,9.54999 32.33146,22.30385a9.58055,8.44096 0 0 0 9.48731,7.45516c0.37296,0 0.62938,0 1.02565,-0.08216l34.4527,0a9.27752,8.17397 0 0 0 0.76924,-0.06161l3.68304,0a9.74372,8.58472 0 0 0 9.37075,-7.45515l0.09325,0a33.17063,29.22503 0 0 1 30.02373,-22.24224c14.84869,0.86258 27.04,10.26881 30.16359,22.57084a9.55724,8.42042 0 0 0 9.41738,7.12655l42.51807,0a9.48731,8.35881 0 0 0 8.97449,-7.18817a33.19394,29.24557 0 0 1 30.09366,-22.50923c14.52235,0.88312 26.41063,9.85806 29.90718,21.85203a9.65048,8.50257 0 0 0 9.51063,7.84537l4.45227,0a11.67848,10.28935 0 0 0 2.704,0l30.90952,0a9.48731,8.35881 0 0 0 8.97448,-7.18817c3.42662,-12.91816 16.52704,-22.59138 32.4247,-22.59138c15.3149,0 28.20552,9.09817 32.07504,21.4002a10.90924,9.6116 0 0 0 12.51765,8.33827l0.30304,-0.04107l19.74386,0a10.72276,9.44731 0 0 0 10.65282,-9.40623l0,-432.85085a10.55959,9.30354 0 0 0 -10.55958,-9.34462l-116.50512,0l-375.11014,0l0.02331,0l0.00001,0z" fill="#c08889" p-id="2175" stroke="null"/>
     </g>
     <rect fill="#cfecf0" x="82.38976" y="172.79309" width="629.00003" height="398" id="svg_4" stroke-width="0" stroke="#000"/>
    </g>
   </g>
  </g>
  <g stroke="null">
   <path stroke="null" p-id="1981" fill="#ffd4bd" d="m27.6451,-46.91375l-25.19373,0a2.31782,2.40094 0 0 0 -2.30775,2.3905l0,110.04658c0,1.3153 1.03798,2.3905 2.30775,2.3905l5.13448,0a2.081,2.15563 0 0 0 2.03565,-1.79027a7.16006,7.41682 0 0 1 7.00386,-5.77792c3.39108,0 6.24301,2.42704 6.98874,5.67353a2.07092,2.14519 0 0 0 2.05077,1.89466c0.08062,0 0.13605,0 0.22171,-0.02088l1.43604,0c0.10581,0.01566 0.21163,0.02088 0.32248,0.02088l5.13448,0c0.10077,0 0.19147,-0.01044 0.28721,-0.02088l0.26705,0a2.081,2.15563 0 0 0 1.98526,-1.74329a7.17013,7.42726 0 0 1 6.29843,-5.79879l0.20155,0c3.39108,0 6.243,2.42704 6.98874,5.66831a2.07092,2.14519 0 0 0 2.05077,1.89466c0.08062,0 0.13605,0 0.2217,-0.02088l7.44726,0a2.00542,2.07734 0 0 0 0.16628,-0.01566l0.79612,0a2.10619,2.18172 0 0 0 2.02557,-1.89465l0.02016,0a7.17013,7.42726 0 0 1 6.4899,-5.65265c3.20968,0.21922 5.84494,2.60972 6.52014,5.73616a2.06589,2.13997 0 0 0 2.03565,1.81114l9.19067,0a2.05077,2.12431 0 0 0 1.93992,-1.8268a7.17517,7.43248 0 0 1 6.50502,-5.7205c3.13914,0.22444 5.7089,2.50533 6.46471,5.55348a2.08604,2.16085 0 0 0 2.05581,1.99382l0.9624,0a2.52441,2.61494 0 0 0 0.58449,0l6.68138,0a2.05077,2.12431 0 0 0 1.93992,-1.8268c0.7407,-3.28303 3.57247,-5.74138 7.00889,-5.74138c3.31046,0 6.09688,2.31221 6.93331,5.43865a2.35813,2.4427 0 0 0 2.70581,2.11909l0.0655,-0.01044l4.26782,0a2.31782,2.40094 0 0 0 2.30271,-2.3905l0,-110.00483a2.28255,2.3644 0 0 0 -2.28255,-2.37484l-25.18365,0l-81.08348,0l0.00504,0z"/>
  </g>
 </g>

</svg>