<?xml version="1.0" encoding="UTF-8"?><svg id="_图层_1" xmlns="http://www.w3.org/2000/svg" xmlns:xlink="http://www.w3.org/1999/xlink" viewBox="0 0 750 750"><defs><radialGradient id="_未命名的渐变_67" cx="450.02854" cy="493.11468" fx="450.02854" fy="493.11468" r="84.87389" gradientTransform="translate(-10.74811 10.00472) rotate(-1.26136)" gradientUnits="userSpaceOnUse"><stop offset="0" stop-color="#eaeaea"/><stop offset="1" stop-color="#121212"/></radialGradient><radialGradient id="_未命名的渐变_77" cx="447.4661" cy="243.75474" fx="447.4661" fy="243.75474" r="84.87389" gradientUnits="userSpaceOnUse"><stop offset="0" stop-color="#eaeaea"/><stop offset="1" stop-color="#2c2c2c"/></radialGradient><linearGradient id="_未命名的渐变_38" x1="283.61675" y1="340.73456" x2="468.17083" y2="340.73456" gradientUnits="userSpaceOnUse"><stop offset="0" stop-color="#eaeaea"/><stop offset="1" stop-color="#767171"/></linearGradient><radialGradient id="_未命名的渐变_87" cx="348.76275" cy="369.83511" fx="348.76275" fy="369.83511" r="177.49742" gradientUnits="userSpaceOnUse"><stop offset="0" stop-color="#eaeaea"/><stop offset="1" stop-color="#767171"/></radialGradient></defs><path d="M554.75691,447.42695c-24.49012,52.05171-76.8684,88.59358-138.28351,89.94584-28.12319.61923-72.4993-15.97795-72.4993-15.97795-9.54063-4.92118,50.31059,15.82634,103.71882-9.82552,53.41801-25.66212,62.02142-59.21963,66.66592-61.79249l40.39806-2.34987Z" fill="#454545" stroke="url(#_未命名的渐变_67)" stroke-miterlimit="10" stroke-width="6"/><path d="M553.17657,287.10471c-25.63-51.5-78.79999-86.88-140.22998-86.88-28.13,0-72.13,17.57001-72.13,17.57001-9.42999,5.13,49.95001-16.92999,103.91003,7.53999,53.96997,24.48,63.31,57.84001,68.01001,60.31001l40.43994,1.45999Z" fill="#454545" stroke="url(#_未命名的渐变_77)" stroke-miterlimit="10" stroke-width="6"/><path d="M358.33654,364.4447l-13.95001,65.10999-55.84003-.26001,37.52002-177.38,63.52997.29999c14.92999.07001,30.67999.53,37.46002,1.73001,6.77002,1.20001,13.20001,3.39001,20.02002,8.37,3.67999,2.69,7.90002,5.92999,11.95001,13.44,4.03998,7.51999,5.47998,14.48999,5.08002,26.59-.57001,17.25-8.10999,34.07001-20.02002,43.62-23.45001,18.81-45.70001,18.22-55.10999,18.07001l-30.64001.41v.00003ZM364.61657,329.2247s-4.26001,0,21.28003,0c2.94,0,25.23999,0,27.40997-27.48999,0,0,1.48999-13.73999-19.27002-14.64001h-20.76001l-8.65997,42.12v.01001Z" fill="#383838" stroke="url(#_未命名的渐变_38)" stroke-miterlimit="10" stroke-width="8"/><path d="M504.05658,516.60468c-31.46002,25.89001-71.39001,41.85999-115.01001,43.13-109.22998,3.16998-199.21997-87.29001-195.48999-196.51001,3.47998-101.85999,87.16003-183.37,189.87-183.37,43.40002,0,83.39001,14.55,115.38,39.04001.69.53-73.72998-44.69-164.67999-3.84-70.51001,31.67001-102.16998,105.16-90.82001,181.04999,4.14001,27.67001,18.23999,93.91,97.98999,129.65997,86.64001,38.84003,164.35999-10.46997,162.76001-9.15002v-.00995Z" fill="#080808" stroke="url(#_未命名的渐变_87)" stroke-miterlimit="10" stroke-width="8"/><path d="M421.19653,334.6947l-26.15002,119.09h79.89001l-8.41998,38.60001-126.70001.82001,34.73999-158.21002,46.64001-.29999Z" fill="#3b3b3b" stroke="#acaaab" stroke-miterlimit="10" stroke-width="8"/></svg>