<?xml version="1.0" standalone="no"?><!DOCTYPE svg PUBLIC "-//W3C//DTD SVG 1.1//EN" "http://www.w3.org/Graphics/SVG/1.1/DTD/svg11.dtd"><svg t="1746442853593" class="icon" viewBox="0 0 1024 1024" version="1.1" xmlns="http://www.w3.org/2000/svg" p-id="2985" xmlns:xlink="http://www.w3.org/1999/xlink" width="200" height="200"><path d="M25.6 153.6m51.2 0l870.4 0q51.2 0 51.2 51.2l0 691.2q0 51.2-51.2 51.2l-870.4 0q-51.2 0-51.2-51.2l0-691.2q0-51.2 51.2-51.2Z" fill="#808080" p-id="2986"></path><path d="M25.6 358.4h972.8v25.6H25.6z" fill="#FFFFFF" p-id="2987"></path><path d="M281.6 358.4h25.6v384h-25.6zM102.4 435.2h102.4a25.6 25.6 0 0 1 0 51.2H102.4a25.6 25.6 0 0 1 0-51.2zM742.4 409.6h204.8a25.6 25.6 0 0 1 25.6 25.6v230.4a25.6 25.6 0 0 1-25.6 25.6h-204.8a25.6 25.6 0 0 1-25.6-25.6v-230.4a25.6 25.6 0 0 1 25.6-25.6z" fill="#FFFFFF" p-id="2988"></path><path d="M755.2 435.2h25.6a12.8 12.8 0 0 1 12.8 12.8v25.6a12.8 12.8 0 0 1-12.8 12.8h-25.6a12.8 12.8 0 0 1-12.8-12.8v-25.6a12.8 12.8 0 0 1 12.8-12.8zM755.2 512h25.6a12.8 12.8 0 0 1 12.8 12.8v25.6a12.8 12.8 0 0 1-12.8 12.8h-25.6a12.8 12.8 0 0 1-12.8-12.8v-25.6a12.8 12.8 0 0 1 12.8-12.8zM832 435.2h25.6a12.8 12.8 0 0 1 12.8 12.8v25.6a12.8 12.8 0 0 1-12.8 12.8h-25.6a12.8 12.8 0 0 1-12.8-12.8v-25.6a12.8 12.8 0 0 1 12.8-12.8zM832 512h25.6a12.8 12.8 0 0 1 12.8 12.8v25.6a12.8 12.8 0 0 1-12.8 12.8h-25.6a12.8 12.8 0 0 1-12.8-12.8v-25.6a12.8 12.8 0 0 1 12.8-12.8zM908.8 435.2h25.6a12.8 12.8 0 0 1 12.8 12.8v25.6a12.8 12.8 0 0 1-12.8 12.8h-25.6a12.8 12.8 0 0 1-12.8-12.8v-25.6a12.8 12.8 0 0 1 12.8-12.8zM908.8 512h25.6a12.8 12.8 0 0 1 12.8 12.8v25.6a12.8 12.8 0 0 1-12.8 12.8h-25.6a12.8 12.8 0 0 1-12.8-12.8v-25.6a12.8 12.8 0 0 1 12.8-12.8z" fill="#808080" p-id="2989"></path><path d="M25.6 716.8h972.8v25.6H25.6z" fill="#FFFFFF" p-id="2990"></path><path d="M76.8 179.2m25.6 0l51.2 0q25.6 0 25.6 25.6l0 102.4q0 25.6-25.6 25.6l-51.2 0q-25.6 0-25.6-25.6l0-102.4q0-25.6 25.6-25.6Z" fill="#FFFFFF" p-id="2991"></path><path d="M230.4 179.2m25.6 0l51.2 0q25.6 0 25.6 25.6l0 102.4q0 25.6-25.6 25.6l-51.2 0q-25.6 0-25.6-25.6l0-102.4q0-25.6 25.6-25.6Z" fill="#FFFFFF" p-id="2992"></path><path d="M384 179.2m25.6 0l51.2 0q25.6 0 25.6 25.6l0 102.4q0 25.6-25.6 25.6l-51.2 0q-25.6 0-25.6-25.6l0-102.4q0-25.6 25.6-25.6Z" fill="#FFFFFF" p-id="2993"></path><path d="M537.6 179.2m25.6 0l51.2 0q25.6 0 25.6 25.6l0 102.4q0 25.6-25.6 25.6l-51.2 0q-25.6 0-25.6-25.6l0-102.4q0-25.6 25.6-25.6Z" fill="#FFFFFF" p-id="2994"></path><path d="M691.2 179.2m25.6 0l51.2 0q25.6 0 25.6 25.6l0 102.4q0 25.6-25.6 25.6l-51.2 0q-25.6 0-25.6-25.6l0-102.4q0-25.6 25.6-25.6Z" fill="#FFFFFF" p-id="2995"></path><path d="M844.8 179.2m25.6 0l51.2 0q25.6 0 25.6 25.6l0 102.4q0 25.6-25.6 25.6l-51.2 0q-25.6 0-25.6-25.6l0-102.4q0-25.6 25.6-25.6Z" fill="#FFFFFF" p-id="2996"></path><path d="M76.8 768m25.6 0l51.2 0q25.6 0 25.6 25.6l0 102.4q0 25.6-25.6 25.6l-51.2 0q-25.6 0-25.6-25.6l0-102.4q0-25.6 25.6-25.6Z" fill="#FFFFFF" p-id="2997"></path><path d="M230.4 768m25.6 0l51.2 0q25.6 0 25.6 25.6l0 102.4q0 25.6-25.6 25.6l-51.2 0q-25.6 0-25.6-25.6l0-102.4q0-25.6 25.6-25.6Z" fill="#FFFFFF" p-id="2998"></path><path d="M384 768m25.6 0l51.2 0q25.6 0 25.6 25.6l0 102.4q0 25.6-25.6 25.6l-51.2 0q-25.6 0-25.6-25.6l0-102.4q0-25.6 25.6-25.6Z" fill="#FFFFFF" p-id="2999"></path><path d="M537.6 768m25.6 0l51.2 0q25.6 0 25.6 25.6l0 102.4q0 25.6-25.6 25.6l-51.2 0q-25.6 0-25.6-25.6l0-102.4q0-25.6 25.6-25.6Z" fill="#FFFFFF" p-id="3000"></path><path d="M844.8 768m25.6 0l51.2 0q25.6 0 25.6 25.6l0 102.4q0 25.6-25.6 25.6l-51.2 0q-25.6 0-25.6-25.6l0-102.4q0-25.6 25.6-25.6Z" fill="#FFFFFF" p-id="3001"></path><path d="M691.2 768m25.6 0l51.2 0q25.6 0 25.6 25.6l0 102.4q0 25.6-25.6 25.6l-51.2 0q-25.6 0-25.6-25.6l0-102.4q0-25.6 25.6-25.6Z" fill="#FFFFFF" p-id="3002"></path><path d="M102.4 230.4m25.6 0l0 0q25.6 0 25.6 25.6l0 0q0 25.6-25.6 25.6l0 0q-25.6 0-25.6-25.6l0 0q0-25.6 25.6-25.6Z" fill="#808080" p-id="3003"></path><path d="M256 230.4m25.6 0l0 0q25.6 0 25.6 25.6l0 0q0 25.6-25.6 25.6l0 0q-25.6 0-25.6-25.6l0 0q0-25.6 25.6-25.6Z" fill="#808080" p-id="3004"></path><path d="M409.6 230.4m25.6 0l0 0q25.6 0 25.6 25.6l0 0q0 25.6-25.6 25.6l0 0q-25.6 0-25.6-25.6l0 0q0-25.6 25.6-25.6Z" fill="#808080" p-id="3005"></path><path d="M563.2 230.4m25.6 0l0 0q25.6 0 25.6 25.6l0 0q0 25.6-25.6 25.6l0 0q-25.6 0-25.6-25.6l0 0q0-25.6 25.6-25.6Z" fill="#808080" p-id="3006"></path><path d="M716.8 230.4m25.6 0l0 0q25.6 0 25.6 25.6l0 0q0 25.6-25.6 25.6l0 0q-25.6 0-25.6-25.6l0 0q0-25.6 25.6-25.6Z" fill="#808080" p-id="3007"></path><path d="M870.4 230.4m25.6 0l0 0q25.6 0 25.6 25.6l0 0q0 25.6-25.6 25.6l0 0q-25.6 0-25.6-25.6l0 0q0-25.6 25.6-25.6Z" fill="#808080" p-id="3008"></path><path d="M102.4 819.2m25.6 0l0 0q25.6 0 25.6 25.6l0 0q0 25.6-25.6 25.6l0 0q-25.6 0-25.6-25.6l0 0q0-25.6 25.6-25.6Z" fill="#808080" p-id="3009"></path><path d="M256 819.2m25.6 0l0 0q25.6 0 25.6 25.6l0 0q0 25.6-25.6 25.6l0 0q-25.6 0-25.6-25.6l0 0q0-25.6 25.6-25.6Z" fill="#808080" p-id="3010"></path><path d="M409.6 819.2m25.6 0l0 0q25.6 0 25.6 25.6l0 0q0 25.6-25.6 25.6l0 0q-25.6 0-25.6-25.6l0 0q0-25.6 25.6-25.6Z" fill="#808080" p-id="3011"></path><path d="M563.2 819.2m25.6 0l0 0q25.6 0 25.6 25.6l0 0q0 25.6-25.6 25.6l0 0q-25.6 0-25.6-25.6l0 0q0-25.6 25.6-25.6Z" fill="#808080" p-id="3012"></path><path d="M870.4 819.2m25.6 0l0 0q25.6 0 25.6 25.6l0 0q0 25.6-25.6 25.6l0 0q-25.6 0-25.6-25.6l0 0q0-25.6 25.6-25.6Z" fill="#808080" p-id="3013"></path><path d="M716.8 819.2m25.6 0l0 0q25.6 0 25.6 25.6l0 0q0 25.6-25.6 25.6l0 0q-25.6 0-25.6-25.6l0 0q0-25.6 25.6-25.6Z" fill="#808080" p-id="3014"></path></svg>