<?xml version="1.0" standalone="no"?><!DOCTYPE svg PUBLIC "-//W3C//DTD SVG 1.1//EN" "http://www.w3.org/Graphics/SVG/1.1/DTD/svg11.dtd"><svg t="1746442829918" class="icon" viewBox="0 0 1024 1024" version="1.1" xmlns="http://www.w3.org/2000/svg" p-id="2173" xmlns:xlink="http://www.w3.org/1999/xlink" width="200" height="200"><path d="M924.184854 948.770796H713.201087c2.147417-4.523495 3.449786-9.524194 3.449787-14.872854 0-10.339417-4.175534-19.883495-11.03534-26.643884a37.71899 37.71899 0 0 0-26.743301-11.134757h-29.825243v-67.603884h-290.895534v67.603884h-29.825242c-20.87767 0-37.778641 17.000388-37.778641 37.778641 0 5.318835 1.312311 10.339417 3.459728 14.872854H92.706796a9.941748 9.941748 0 1 0 0 19.883495h831.488a9.941748 9.941748 0 1 0 0-19.883495zM51.170175 948.770796H35.124194a9.941748 9.941748 0 1 0 0 19.883495h16.045981a9.941748 9.941748 0 1 0 0-19.883495zM988.875806 948.770796h-25.649709a9.941748 9.941748 0 1 0 0 19.883495h25.649709a9.941748 9.941748 0 1 0 0-19.883495zM94.188117 808.631922h828.545242c34.696699 0 62.931262-28.234563 62.931262-63.030679v-627.02602c0-34.796117-28.234563-63.229515-62.931262-63.229514H94.188117c-34.696699 0-62.931262 28.433398-62.931263 63.229514v627.02602c0 34.796117 28.234563 63.03068 62.931263 63.030679z m409.401165-41.954174c-15.906796 0-28.831068-12.924272-28.831068-28.831068a28.870835 28.870835 0 1 1 57.761553 0c0 15.906796-12.924272 28.831068-28.930485 28.831068z m-432.565437-628.21903c0-23.860194 19.386408-43.346019 43.047767-43.346019h788.778252c23.760777 0 43.047767 19.485825 43.047767 43.346019v540.333981h-874.873786v-540.333981z" p-id="2174" fill="#a64e4e"></path><path d="M350.287534 229.008155m-40.085126 0a40.085126 40.085126 0 1 0 80.170252 0 40.085126 40.085126 0 1 0-80.170252 0Z" p-id="2175" fill="#a64e4e"></path><path d="M611.95433 120.26532h-504.245437c-5.567379 0-9.941748 4.374369-9.941747 9.941748v315.45165c0 5.766214 5.219417 9.84233 9.941747 9.842331h504.245437c4.255068 0 9.84233-3.648621 9.84233-9.643496 0-0.099417 0.099417-0.198835 0.099418-0.298252v-315.352233c0-5.567379-4.473786-9.941748-9.941748-9.941748z m-9.941747 290.398447l-91.066408-146.839612c-1.391845-2.187184-3.678447-3.877282-6.263301-4.473786-2.584854-0.497087-5.269126-0.099417-7.555728 1.391845l-176.267185 112.64-53.784854-53.884272a9.892039 9.892039 0 0 0-13.123107-0.79534l-136.301359 106.476116v-285.029902h484.361942v270.514951zM758.187495 140.11899h-69.592233a7.456311 7.456311 0 0 0-7.456311 7.456311v60.286757c0 4.125825 3.340427 7.456311 7.456311 7.456311h69.592233a7.456311 7.456311 0 0 0 7.456311-7.456311v-60.286757a7.456311 7.456311 0 0 0-7.456311-7.456311zM891.774757 140.11899h-69.592233a7.456311 7.456311 0 0 0-7.45631 7.456311v60.286757c0 4.125825 3.340427 7.456311 7.45631 7.456311h69.592233a7.456311 7.456311 0 0 0 7.456311-7.456311v-60.286757a7.456311 7.456311 0 0 0-7.456311-7.456311zM758.187495 260.205359h-69.592233a7.456311 7.456311 0 0 0-7.456311 7.456311v60.286757c0 4.115883 3.340427 7.456311 7.456311 7.456311h69.592233a7.456311 7.456311 0 0 0 7.456311-7.456311v-60.286757a7.456311 7.456311 0 0 0-7.456311-7.456311zM891.774757 260.205359h-69.592233a7.456311 7.456311 0 0 0-7.45631 7.456311v60.286757c0 4.115883 3.340427 7.456311 7.45631 7.456311h69.592233a7.456311 7.456311 0 0 0 7.456311-7.456311v-60.286757a7.456311 7.456311 0 0 0-7.456311-7.456311zM758.187495 380.291728h-69.592233a7.456311 7.456311 0 0 0-7.456311 7.456311v60.286757c0 4.115883 3.340427 7.456311 7.456311 7.456311h69.592233a7.456311 7.456311 0 0 0 7.456311-7.456311v-60.286757a7.456311 7.456311 0 0 0-7.456311-7.456311zM891.774757 380.291728h-69.592233a7.456311 7.456311 0 0 0-7.45631 7.456311v60.286757c0 4.115883 3.340427 7.456311 7.45631 7.456311h69.592233a7.456311 7.456311 0 0 0 7.456311-7.456311v-60.286757a7.456311 7.456311 0 0 0-7.456311-7.456311zM542.859184 612.481243h-254.608155a31.555107 31.555107 0 0 0-29.725825-21.474175c-13.819029 0-25.649709 9.04699-29.825243 21.474175h-71.083495c-5.467961 0-9.941748 4.374369-9.941748 9.941747 0 5.467961 4.473786 9.941748 9.941748 9.941748h71.083495a31.495456 31.495456 0 0 0 29.825243 21.374757c13.719612 0 25.550291-8.947573 29.725825-21.374757h254.608155c5.567379 0 9.941748-4.473786 9.941748-9.941748 0-5.567379-4.374369-9.941748-9.941748-9.941747zM542.859184 508.092893h-275.982912c-4.175534-12.427184-16.006214-21.474175-29.825243-21.474175s-25.550291 9.04699-29.725825 21.474175h-49.708738c-5.467961 0-9.941748 4.374369-9.941748 9.941748 0 5.467961 4.473786 9.941748 9.941748 9.941747h49.708738c4.175534 12.427184 15.906796 21.374757 29.725825 21.374758s25.649709-8.947573 29.825243-21.374758h275.982912c5.567379 0 9.941748-4.473786 9.941748-9.941747 0-5.567379-4.374369-9.941748-9.941748-9.941748z" p-id="2176" fill="#a64e4e"></path><path d="M542.859184 560.287068h-153.301747a31.455689 31.455689 0 0 0-29.725825-21.474175c-13.819029 0-25.649709 9.04699-29.825243 21.474175h-172.389903c-5.467961 0-9.941748 4.374369-9.941748 9.941748 0 5.467961 4.473786 9.941748 9.941748 9.941747h172.389903a31.495456 31.495456 0 0 0 29.825243 21.374757c13.819029 0 25.550291-8.947573 29.725825-21.374757h153.301747c5.567379 0 9.941748-4.473786 9.941748-9.941747 0-5.567379-4.374369-9.941748-9.941748-9.941748z" p-id="2177" fill="#a64e4e"></path></svg>