<?xml version="1.0" standalone="no"?><!DOCTYPE svg PUBLIC "-//W3C//DTD SVG 1.1//EN" "http://www.w3.org/Graphics/SVG/1.1/DTD/svg11.dtd"><svg t="1747742057718" class="icon" viewBox="0 0 1024 1024" version="1.1" xmlns="http://www.w3.org/2000/svg" p-id="5077" xmlns:xlink="http://www.w3.org/1999/xlink" width="32" height="32"><path d="M855 793.5c-15 0-28.3 7.5-36.2 19H128.7c-8.1 0-14.7-6.6-14.7-14.7V266.2c0-13.8-11.2-25-25-25s-25 11.2-25 25v531.6c0 35.7 29 64.7 64.7 64.7h690.1c7.9 11.5 21.2 19 36.2 19 24.3 0 44-19.7 44-44s-19.7-44-44-44zM895.3 161.5H205.2c-7.9-11.5-21.2-19-36.2-19-24.3 0-44 19.7-44 44s19.7 44 44 44c15 0 28.3-7.5 36.2-19h690.1c8.1 0 14.7 6.6 14.7 14.7v531.6h50V226.2c0-35.7-29-64.7-64.7-64.7z" fill="#9F7C57" p-id="5078"></path><path d="M401.3 371.5h-67.6c-30.7 0-55.7 25-55.7 55.7v265.3h-44c-13.8 0-25 11.2-25 25s11.2 25 25 25h545c13.8 0 25-11.2 25-25s-11.2-25-25-25h-37V325.2c0-30.7-25-55.7-55.7-55.7H571.7c-30.7 0-55.7 25-55.7 55.7v367.3h-59V427.2c0-30.7-25-55.7-55.7-55.7z m-73.3 321V427.2c0-3.1 2.5-5.7 5.7-5.7h67.6c3.1 0 5.7 2.5 5.7 5.7v265.3h-79z m238-367.3c0-3.1 2.5-5.7 5.7-5.7h114.6c3.1 0 5.7 2.5 5.7 5.7v367.3H566V325.2z" fill="#9F7C57" p-id="5079"></path></svg>