<?xml version="1.0" standalone="no"?><!DOCTYPE svg PUBLIC "-//W3C//DTD SVG 1.1//EN" "http://www.w3.org/Graphics/SVG/1.1/DTD/svg11.dtd"><svg t="1747816879636" class="icon" viewBox="0 0 1024 1024" version="1.1" xmlns="http://www.w3.org/2000/svg" p-id="12813" xmlns:xlink="http://www.w3.org/1999/xlink" width="128" height="128"><path d="M662.08 124.032a128 128 0 0 1 110.848 64L923.072 448a128 128 0 0 1 0 128l-150.144 259.968a128 128 0 0 1-110.848 64h-300.16a128 128 0 0 1-110.848-64L100.928 576a128 128 0 0 1 0-128l150.144-259.968a128 128 0 0 1 110.848-64h300.16zM334.336 355.392a32 32 0 0 0-42.944 14.272L241.664 469.12a96 96 0 0 0 0 85.888l49.728 99.392a32 32 0 0 0 57.216-28.672l-49.664-99.328a32 32 0 0 1 0-28.672l49.664-99.328a32 32 0 0 0-14.272-42.944z m355.328 0a32 32 0 0 0-14.272 42.88l49.664 99.392a32 32 0 0 1 0 28.672l-49.664 99.328a32 32 0 0 0 57.216 28.672l49.728-99.392a96 96 0 0 0 0-85.888l-49.728-99.392a32 32 0 0 0-42.88-14.272z m-99.328 0a32 32 0 0 0-42.944 14.272l-128 256a32 32 0 1 0 57.216 28.672l128-256a32 32 0 0 0-14.272-42.944z" p-id="12814"></path></svg>