<?xml version="1.0" standalone="no"?><!DOCTYPE svg PUBLIC "-//W3C//DTD SVG 1.1//EN" "http://www.w3.org/Graphics/SVG/1.1/DTD/svg11.dtd"><svg t="1747815421645" class="icon" viewBox="0 0 1024 1024" version="1.1" xmlns="http://www.w3.org/2000/svg" p-id="5203" width="128" height="128" xmlns:xlink="http://www.w3.org/1999/xlink"><path d="M512.007 666.138c-20.202 0-39.826-4.77-55.258-13.432L35.738 416.493C13.118 403.84 0.117 383.552 0.117 360.852c0-22.7 12.988-43.003 35.648-55.696L456.748 68.982c30.786-17.32 79.624-17.354 110.544 0.007l420.983 236.18c22.646 12.707 35.622 33.01 35.608 55.703-0.013 22.687-13.002 42.962-35.634 55.641L567.266 652.706c-15.42 8.657-35.044 13.432-55.259 13.432zM105.194 360.83l391.93 219.908c2.551 1.43 8.139 2.874 14.882 2.874 7.71 0 12.976-1.806 14.869-2.867l391.943-219.908L526.89 140.95c-2.565-1.437-8.153-2.881-14.883-2.881-7.696 0-12.962 1.8-14.855 2.867L105.194 360.83z" p-id="5204"></path><path d="M512.128 968.02c-173.93 0-350.56-55.575-358.471-161.908a40.65 40.65 0 0 1-0.564-6.81V485.518c0-22.787 18.468-41.263 41.263-41.263s41.262 18.476 41.262 41.263v308.853c0.175 1.47 0.283 2.969 0.296 4.48 0.336 30.545 105.454 86.642 276.214 86.642s275.865-56.091 276.187-86.636c0.013-0.557 0.027-1.121 0.054-1.672V485.52c0-22.787 18.47-41.263 41.263-41.263 22.794 0 41.263 18.476 41.263 41.263V799.3c0 1.088-0.04 2.157-0.12 3.224C866.622 911.19 687.99 968.02 512.127 968.02zM976.683 860.713c-22.794 0-41.262-18.476-41.262-41.263V491.86c0-22.788 18.468-41.263 41.262-41.263s41.263 18.475 41.263 41.262V819.45c0 22.787-18.469 41.263-41.263 41.263z" p-id="5205"></path></svg>