<?xml version="1.0" standalone="no"?><!DOCTYPE svg PUBLIC "-//W3C//DTD SVG 1.1//EN" "http://www.w3.org/Graphics/SVG/1.1/DTD/svg11.dtd"><svg t="1746537391839" class="icon" viewBox="0 0 1024 1024" version="1.1" xmlns="http://www.w3.org/2000/svg" p-id="28963" xmlns:xlink="http://www.w3.org/1999/xlink" width="200" height="200"><path d="M503 633.3h7.7l94.5 0.2c10.2 0 18.5-8.2 18.5-18.5l0.3-110.4c0-10.2-8.2-18.5-18.5-18.6l-188.5-0.3c-10.2 0-18.5 8.3-18.5 18.5l-0.3 110.4c0 10.2 8.2 18.5 18.5 18.6H434l115.6-115.6c9.6-9.6 25.1-9.6 34.7 0 9.6 9.6 9.6 25.1 0 34.6L503 633.3z" fill="#97D5C9" p-id="28964"></path><path d="M328.3 416c-11.4-0.1-20.7 9.2-20.7 20.6l-0.6 256c0 11.4 9.2 20.7 20.6 20.7l366.2 0.9c11.4 0.1 20.7-9.2 20.7-20.6l0.6-255.9c0-11.4-9.2-20.7-20.6-20.7l-366.2-1z m295.4 199.1c0 10.2-8.3 18.5-18.5 18.5l-94.5-0.2H503l81.1-81.1c9.6-9.5 9.6-25.1 0-34.6-9.6-9.6-25.1-9.6-34.7 0L433.9 633.1h-17.3c-10.2 0-18.5-8.3-18.5-18.6l0.3-110.4c0-10.2 8.3-18.5 18.5-18.5l188.5 0.5c10.2 0 18.5 8.3 18.5 18.6l-0.2 110.4z m40.1-91c-7.6 0-13.7-6.2-13.7-13.8 0-7.6 6.2-13.8 13.7-13.8 7.6 0 13.7 6.2 13.7 13.8 0.1 7.7-6.1 13.8-13.7 13.8z m0-37.7c-7.6 0-13.7-6.2-13.7-13.8 0-7.6 6.2-13.7 13.7-13.7 7.6 0 13.7 6.2 13.7 13.7 0.1 7.7-6.1 13.8-13.7 13.8zM230.5 416.7c-4.9 0-8.9 3.9-8.9 8.8l-0.6 250c0 4.9 3.9 8.9 8.8 8.9l51.2 0.1c4.9 0 8.9-3.9 8.9-8.8l0.6-250c0-4.9-4-8.9-8.9-8.9l-51.1-0.1zM256.2 737.5c18 0 32.6 14.7 32.6 32.8 0 11.4 9.2 20.7 20.6 20.7 11.4 0 20.7-9.2 20.7-20.6 0.1-40.8-33-74.1-73.9-74.2-40.8-0.1-74.1 33-74.2 73.8-0.1 40.8 33 74.1 73.9 74.2 11.4 0 20.7-9.2 20.7-20.6 0-11.4-9.2-20.7-20.6-20.7-18 0-32.7-14.7-32.6-32.8 0-18 14.7-32.7 32.8-32.6zM742.4 414.1c-4.9 0-8.9 3.9-8.9 8.8l-0.6 250c0 4.9 4 8.9 8.8 8.9l51.2 0.1c4.9 0 8.9-3.9 8.9-8.8l0.6-250c0.1-4.9-3.9-8.9-8.8-8.9l-51.2-0.1zM767.8 804.2c-11.4 0-20.7 9.2-20.7 20.6 0 11.4 9.2 20.7 20.6 20.7 40.8 0.1 74.1-33 74.3-73.9 0.1-40.8-33-74.1-73.9-74.2-40.8-0.1-74.1 33-74.2 73.9 0 11.4 9.2 20.7 20.6 20.7 11.4 0 20.7-9.2 20.7-20.6 0-18 14.8-32.7 32.8-32.6 18 0 32.7 14.7 32.6 32.8 0 18-14.7 32.6-32.8 32.6zM398.8 733.1c-4.9 0-8.8 4-8.9 8.8l-0.3 116.2c0 4.9 4 8.9 8.8 8.9l72.9 0.2c4.9 0 8.9-3.9 8.9-8.8l0.3-116.1c0-4.9-3.9-8.9-8.8-8.9l-72.9-0.3zM553.3 733.5c-4.9 0-8.9 3.9-8.9 8.8l-0.3 116.1c0 4.9 3.9 8.9 8.9 8.9l72.8 0.2c4.9 0 8.9-3.9 8.9-8.8l0.3-116.2c0-4.9-3.9-8.9-8.8-8.9l-72.9-0.1zM363.6 888.6c-4.9 0-8.9 6.2-8.9 13.8l-0.1 43.2c0 7.7 3.9 13.9 8.8 13.9l112.2 0.3c4.9 0 8.9-6.2 8.9-13.8l0.1-43.2c0-7.6-3.9-13.9-8.8-13.9l-112.2-0.3zM547.6 889c-4.9 0-8.9 6.2-8.9 13.9l-0.1 43.1c0 7.6 3.9 13.9 8.8 13.9l112.2 0.3c4.9 0 8.9-6.2 8.9-13.9l0.1-43.1c0-7.7-3.9-13.9-8.8-13.9l-112.2-0.3zM426.8 63.9h-7.9c-4.9 0-8.9 3.9-8.9 8.8l-0.1 45.3-47.7-0.1h-3.4c-12.8 0-23.2 10.4-23.3 23.2l-0.6 233.1c-0.1 12.8 10.3 23.3 23.2 23.3l312 0.8c12.8 0 23.2-10.3 23.3-23.2L694 142c0-12.8-10.4-23.2-23.2-23.3h-9.7l-41.4-0.1 0.1-45.3c0-4.9-4-8.9-8.8-8.9h-7.9c-4.9 0-8.9 3.9-8.9 8.9l-0.1 45.3-158.6-0.6 0.1-45.3c0.1-4.9-3.9-8.8-8.8-8.8z m-25.6 137.8c16.6 0 30.1 13.5 30.1 30.1s-13.5 30.1-30.1 30.1-30.1-13.5-30.1-30.1c0.1-16.7 13.5-30.1 30.1-30.1z m225.2 0c16.6 0 30.1 13.5 30.1 30.1s-13.5 30.1-30.1 30.1-30.1-13.5-30.1-30.1c0-16.7 13.5-30.1 30.1-30.1zM684 306.5v8.6H347.1v-8.6H684zM262.7 211.6l-0.2 91.5c0 4.9 4 8.9 8.8 8.9l34.5 0.1V202.9l-34.2-0.1c-4.9-0.1-8.9 3.9-8.9 8.8z" fill="#5A6E7F" p-id="28965"></path><path d="M305.7 202.9v109.2h9.8c4.9 0 8.9-3.9 8.9-8.8l0.2-91.6c0-4.9-3.9-8.9-8.8-8.9l-10.1 0.1z" fill="#97D5C9" p-id="28966"></path><path d="M725.4 202.8V312l34.2 0.1c4.9 0 8.9-4 8.9-8.8l0.2-91.6c0-4.9-4-8.9-8.8-8.9h-34.5z" fill="#5A6E7F" p-id="28967"></path><path d="M706.7 211.6l-0.2 91.6c0 4.9 3.9 8.9 8.8 8.9h10.1V202.8h-9.8c-4.9-0.1-8.9 3.9-8.9 8.8z" fill="#97D5C9" p-id="28968"></path><path d="M371.2 231.8c0 16.6 13.4 30.1 30.1 30.1 16.6 0 30.1-13.5 30.1-30.1s-13.5-30.1-30.1-30.1c-16.7 0-30.1 13.4-30.1 30.1zM596.3 231.8c0 16.6 13.5 30.1 30.1 30.1s30.1-13.5 30.1-30.1-13.5-30.1-30.1-30.1-30.1 13.4-30.1 30.1zM347.1 306.5H684v8.6H347.1z" fill="#FFFFFF" p-id="28969"></path><path d="M650.1 472.7c0 7.6 6.2 13.8 13.7 13.8 7.6 0 13.7-6.2 13.7-13.8 0-7.6-6.2-13.7-13.7-13.7-7.6-0.1-13.7 6.1-13.7 13.7zM650.1 510.4c0 7.6 6.2 13.8 13.7 13.8 7.6 0 13.7-6.2 13.7-13.8 0-7.6-6.2-13.8-13.7-13.8-7.6 0-13.7 6.2-13.7 13.8z" fill="#5CBFAB" p-id="28970"></path></svg>