<svg t="1747815900386" class="icon" viewBox="0 0 1024 1024" version="1.1" xmlns="http://www.w3.org/2000/svg" p-id="11727" width="128" height="128"><path d="M136 128c0-2.72 0-5.36 0.4-8H128A128 128 0 0 0 0 248v112a192 192 0 0 0 139.68 184.72A326.4 326.4 0 0 1 136 496zM896 120h-8v376a326.4 326.4 0 0 1-3.68 48.72A192 192 0 0 0 1024 360V248a128 128 0 0 0-128-128zM728 0H296a128 128 0 0 0-128 128v368a288 288 0 0 0 272 287.52V880H344a72 72 0 0 0 0 144h336a72 72 0 0 0 0-144H584V783.52A288 288 0 0 0 856 496V128A128 128 0 0 0 728 0z" fill="#AFE1FA" p-id="11728"></path><path d="M516 214.88l48.48 98.32 108.56 15.76-78.56 76.56 18.56 108.08-97.04-51.04-97.04 51.04 18.56-108.08-78.56-76.56 108.56-15.76 48.48-98.32z" fill="#F5834A" p-id="11729"></path></svg>