<?xml version="1.0" standalone="no"?><!DOCTYPE svg PUBLIC "-//W3C//DTD SVG 1.1//EN" "http://www.w3.org/Graphics/SVG/1.1/DTD/svg11.dtd"><svg t="1746537452070" class="icon" viewBox="0 0 1024 1024" version="1.1" xmlns="http://www.w3.org/2000/svg" p-id="30114" xmlns:xlink="http://www.w3.org/1999/xlink" width="200" height="200"><path d="M153.6 261.12h716.8v87.04H153.6z" p-id="30115" fill="#70b09c"></path><path d="M829.44 199.94624c-20.48 19.8656-50.69824 31.21664-81.92512 31.21664-31.21152 0-61.43488-12.7744-81.91488-31.21664V266.24h163.84V199.94624z" p-id="30116" fill="#70b09c"></path><path d="M746.3936 22.76864c-49.408 0-89.83552 40.42752-89.83552 89.84064 0 49.408 40.42752 89.83552 89.83552 89.83552 49.41824 0 89.84576-40.42752 89.84576-89.83552 0-49.41312-40.4224-89.84064-89.84576-89.84064z m0.00512 138.15808a48.32256 48.32256 0 1 1 48.32256-48.32256 48.32256 48.32256 0 0 1-48.32256 48.32256zM148.48 885.76h732.16v112.64H148.48zM332.8 76.8h25.6v40.96h-25.6zM424.96 128h61.44v138.24H424.96zM445.44 76.8h25.6v40.96h-25.6z" p-id="30117" fill="#70b09c"></path><path d="M747.0336 97.77664c-8.50944 0-14.18752 7.09632-14.18752 14.19264s5.67808 14.18752 14.18752 14.18752c8.51968 0 14.19264-7.0912 14.19264-14.18752s-7.08608-14.19264-14.19264-14.19264zM312.32 128h66.56v138.24H312.32zM204.8 128h61.44v138.24H204.8zM220.16 76.8h30.72v40.96h-30.72zM25.6 384v465.92h977.92V384H25.6z m102.4 404.48h-35.84V445.44h35.84v343.04z m71.68 0h-35.84V445.44h35.84v343.04z m71.68 0h-35.84V445.44h35.84v343.04z m71.68 0h-35.84V445.44h35.84v343.04z m118.81472-1.99168l36.46976-165.15584-83.72736-0.04608 104.27904-173.3888-1.5872 105.0624h97.48992l-152.92416 233.52832zM727.04 788.48h-35.84V445.44h35.84v343.04z m71.68 0h-35.84V445.44h35.84v343.04z m71.68 0h-35.84V445.44h35.84v343.04z m71.68 0h-35.84V445.44h35.84v343.04z" p-id="30118" fill="#70b09c"></path></svg>