<?xml version="1.0" standalone="no"?><!DOCTYPE svg PUBLIC "-//W3C//DTD SVG 1.1//EN" "http://www.w3.org/Graphics/SVG/1.1/DTD/svg11.dtd"><svg t="1746443215462" class="icon" viewBox="0 0 1024 1024" version="1.1" xmlns="http://www.w3.org/2000/svg" p-id="3676" xmlns:xlink="http://www.w3.org/1999/xlink" width="200" height="200"><path d="M0 0h1024v1024H0z" fill="#F7F8FF" p-id="3677"></path><path d="M884.736 233.472v501.76H31.744v-501.76c0-26.624 21.504-49.152 48.128-49.152h755.712c27.648 0 49.152 22.528 49.152 49.152z" fill="#FFFFFF" p-id="3678"></path><path d="M884.736 233.472v132.096H585.728c-19.456 0-35.84-16.384-35.84-35.84V184.32h286.72c26.624 0 48.128 22.528 48.128 49.152z" fill="#E9F1FE" p-id="3679"></path><path d="M32.768 735.232v69.632c0 26.624 21.504 48.128 48.128 48.128h755.712c26.624 0 48.128-21.504 48.128-48.128v-69.632H32.768z" fill="#B5D8FE" p-id="3680"></path><path d="M321.536 852.992h265.216v79.872H321.536z" fill="#FFFFFF" p-id="3681"></path><path d="M321.536 852.992h265.216v38.912H321.536z" fill="#E9F1FE" p-id="3682"></path><path d="M648.192 967.68c0 17.408-14.336 31.744-31.744 31.744H290.816c-9.216 0-16.384-3.072-22.528-9.216-6.144-6.144-9.216-13.312-9.216-22.528 0-19.456 15.36-34.816 34.816-34.816h319.488c9.216 0 18.432 4.096 24.576 10.24 6.144 7.168 10.24 15.36 10.24 24.576z" fill="#FFFFFF" p-id="3683"></path><path d="M264.192 969.728c0 8.192 4.096 15.36 9.216 20.48 5.12 6.144 13.312 9.216 22.528 9.216h325.632c16.384 0 30.72-13.312 31.744-29.696h-389.12z" fill="#E9F1FE" p-id="3684"></path><path d="M453.632 797.696m-26.624 0a26.624 26.624 0 1 0 53.248 0 26.624 26.624 0 1 0-53.248 0Z" fill="#FFFFFF" p-id="3685"></path><path d="M990.208 50.176v235.52c0 14.336-11.264 25.6-25.6 25.6H628.736c-14.336 0-25.6-11.264-25.6-25.6v-235.52c0-14.336 11.264-25.6 25.6-25.6h334.848c14.336 0 26.624 11.264 26.624 25.6z" fill="#B5D8FE" p-id="3686"></path><path d="M36.864 989.184H20.48c-6.144 0-10.24 4.096-10.24 10.24s4.096 10.24 10.24 10.24h16.384c6.144 0 10.24-4.096 10.24-10.24s-4.096-10.24-10.24-10.24zM1003.52 989.184h-26.624c-6.144 0-10.24 4.096-10.24 10.24s4.096 10.24 10.24 10.24H1003.52c6.144 0 10.24-4.096 10.24-10.24s-5.12-10.24-10.24-10.24zM884.736 626.688c6.144 0 10.24-4.096 10.24-10.24V321.536h69.632c19.456 0 35.84-16.384 35.84-35.84v-235.52c0-19.456-16.384-35.84-35.84-35.84H629.76C610.304 14.336 593.92 30.72 593.92 50.176V174.08H80.896c-32.768 0-58.368 26.624-58.368 58.368v571.392c0 32.768 26.624 58.368 58.368 58.368h230.4V880.64c0 6.144 4.096 10.24 10.24 10.24s10.24-4.096 10.24-10.24v-18.432h244.736V921.6H331.776v-5.12c0-6.144-4.096-10.24-10.24-10.24s-10.24 4.096-10.24 10.24v5.12h-16.384c-24.576 0-45.056 20.48-45.056 45.056 0 8.192 2.048 15.36 6.144 21.504H79.872c-6.144 0-10.24 4.096-10.24 10.24s4.096 10.24 10.24 10.24h856.064c6.144 0 10.24-4.096 10.24-10.24s-4.096-10.24-10.24-10.24H652.288c4.096-6.144 6.144-13.312 6.144-21.504 0-24.576-20.48-45.056-45.056-45.056h-16.384v-59.392h239.616c32.768 0 58.368-26.624 58.368-58.368V675.84c0-6.144-4.096-10.24-10.24-10.24s-10.24 4.096-10.24 10.24v48.128H43.008v-491.52c0-21.504 17.408-37.888 37.888-37.888H593.92v91.136c0 19.456 16.384 35.84 35.84 35.84h244.736v294.912c0 6.144 4.096 10.24 10.24 10.24zM637.952 967.68c0 11.264-9.216 21.504-21.504 21.504H290.816c-11.264 0-21.504-9.216-21.504-21.504 0-13.312 11.264-24.576 24.576-24.576h319.488c13.312 1.024 24.576 11.264 24.576 24.576z m236.544-222.208v59.392c0 21.504-17.408 37.888-37.888 37.888H80.896c-21.504 0-37.888-17.408-37.888-37.888v-59.392h831.488zM613.376 285.696v-235.52c0-8.192 7.168-15.36 15.36-15.36h334.848c8.192 0 15.36 7.168 15.36 15.36v235.52c0 8.192-7.168 15.36-15.36 15.36H629.76c-9.216 0-16.384-7.168-16.384-15.36z" fill="#077AF1" p-id="3687"></path><path d="M453.632 834.56c20.48 0 36.864-16.384 36.864-36.864s-16.384-36.864-36.864-36.864-36.864 16.384-36.864 36.864 17.408 36.864 36.864 36.864z m0-52.224c9.216 0 16.384 7.168 16.384 16.384s-7.168 16.384-16.384 16.384-16.384-7.168-16.384-16.384 8.192-16.384 16.384-16.384zM212.992 250.88c-3.072-5.12-9.216-6.144-14.336-3.072l-46.08 31.744c-3.072 2.048-4.096 5.12-4.096 8.192s2.048 6.144 4.096 8.192l46.08 31.744c5.12 3.072 11.264 2.048 14.336-3.072 3.072-5.12 2.048-11.264-3.072-14.336L176.128 286.72l33.792-23.552c5.12-2.048 6.144-8.192 3.072-12.288zM274.432 324.608c3.072 4.096 9.216 6.144 14.336 3.072l46.08-31.744c3.072-2.048 4.096-5.12 4.096-8.192s-2.048-6.144-4.096-8.192l-46.08-31.744c-5.12-3.072-11.264-2.048-14.336 3.072-3.072 5.12-2.048 11.264 3.072 14.336l33.792 23.552-34.816 22.528c-4.096 3.072-6.144 9.216-2.048 13.312zM269.312 222.208c-5.12-2.048-11.264 0-13.312 6.144l-45.056 112.64c-2.048 5.12 0 11.264 6.144 13.312 5.12 2.048 11.264 0 13.312-6.144l45.056-112.64c2.048-5.12-1.024-11.264-6.144-13.312zM109.568 396.288c0 6.144 4.096 10.24 10.24 10.24h114.688c6.144 0 10.24-4.096 10.24-10.24s-4.096-10.24-10.24-10.24H119.808c-5.12 0-10.24 4.096-10.24 10.24zM331.776 434.176H197.632c-6.144 0-10.24 4.096-10.24 10.24s4.096 10.24 10.24 10.24h134.144c6.144 0 10.24-4.096 10.24-10.24s-5.12-10.24-10.24-10.24zM622.592 434.176H408.576c-6.144 0-10.24 4.096-10.24 10.24s4.096 10.24 10.24 10.24h214.016c6.144 0 10.24-4.096 10.24-10.24s-4.096-10.24-10.24-10.24zM796.672 434.176H666.624c-6.144 0-10.24 4.096-10.24 10.24s4.096 10.24 10.24 10.24h130.048c6.144 0 10.24-4.096 10.24-10.24s-4.096-10.24-10.24-10.24zM282.624 516.096c6.144 0 10.24-4.096 10.24-10.24s-4.096-10.24-10.24-10.24h-84.992c-6.144 0-10.24 4.096-10.24 10.24s4.096 10.24 10.24 10.24h84.992zM622.592 495.616H374.784c-6.144 0-10.24 4.096-10.24 10.24s4.096 10.24 10.24 10.24h248.832c6.144 0 10.24-4.096 10.24-10.24s-5.12-10.24-11.264-10.24zM796.672 495.616h-65.536c-6.144 0-10.24 4.096-10.24 10.24s4.096 10.24 10.24 10.24h65.536c6.144 0 10.24-4.096 10.24-10.24s-4.096-10.24-10.24-10.24zM119.808 559.104h114.688c6.144 0 10.24-4.096 10.24-10.24s-4.096-10.24-10.24-10.24H119.808c-6.144 0-10.24 4.096-10.24 10.24s5.12 10.24 10.24 10.24zM342.016 596.992c0-6.144-4.096-10.24-10.24-10.24H197.632c-6.144 0-10.24 4.096-10.24 10.24s4.096 10.24 10.24 10.24h134.144c5.12 0 10.24-4.096 10.24-10.24zM622.592 586.752H408.576c-6.144 0-10.24 4.096-10.24 10.24s4.096 10.24 10.24 10.24h214.016c6.144 0 10.24-4.096 10.24-10.24s-4.096-10.24-10.24-10.24zM796.672 586.752H666.624c-6.144 0-10.24 4.096-10.24 10.24s4.096 10.24 10.24 10.24h130.048c6.144 0 10.24-4.096 10.24-10.24s-4.096-10.24-10.24-10.24zM197.632 648.192c-6.144 0-10.24 4.096-10.24 10.24s4.096 10.24 10.24 10.24h84.992c6.144 0 10.24-4.096 10.24-10.24s-4.096-10.24-10.24-10.24h-84.992zM622.592 648.192H374.784c-6.144 0-10.24 4.096-10.24 10.24s4.096 10.24 10.24 10.24h248.832c6.144 0 10.24-4.096 10.24-10.24s-5.12-10.24-11.264-10.24zM796.672 648.192h-65.536c-6.144 0-10.24 4.096-10.24 10.24s4.096 10.24 10.24 10.24h65.536c6.144 0 10.24-4.096 10.24-10.24s-4.096-10.24-10.24-10.24zM666.624 156.672c6.144 0 10.24-4.096 10.24-10.24V75.776c0-6.144-4.096-10.24-10.24-10.24s-10.24 4.096-10.24 10.24v70.656c0 5.12 4.096 10.24 10.24 10.24zM745.472 77.824c-18.432 0-32.768 14.336-32.768 32.768S727.04 143.36 745.472 143.36s32.768-14.336 32.768-32.768-14.336-32.768-32.768-32.768z m0 46.08c-7.168 0-12.288-5.12-12.288-12.288s5.12-12.288 12.288-12.288 12.288 5.12 12.288 12.288-5.12 12.288-12.288 12.288zM825.344 156.672c6.144 0 10.24-4.096 10.24-10.24V75.776c0-6.144-4.096-10.24-10.24-10.24s-10.24 4.096-10.24 10.24v70.656c0 5.12 4.096 10.24 10.24 10.24zM904.192 77.824c-18.432 0-32.768 14.336-32.768 32.768s14.336 32.768 32.768 32.768 32.768-14.336 32.768-32.768-14.336-32.768-32.768-32.768z m0 46.08c-7.168 0-12.288-5.12-12.288-12.288s5.12-12.288 12.288-12.288 12.288 5.12 12.288 12.288-5.12 12.288-12.288 12.288zM745.472 179.2c-6.144 0-10.24 4.096-10.24 10.24v70.656c0 6.144 4.096 10.24 10.24 10.24s10.24-4.096 10.24-10.24v-70.656c0-5.12-4.096-10.24-10.24-10.24zM666.624 192.512c-18.432 0-32.768 14.336-32.768 32.768s14.336 32.768 32.768 32.768 32.768-14.336 32.768-32.768-14.336-32.768-32.768-32.768z m0 45.056c-7.168 0-12.288-5.12-12.288-12.288s5.12-12.288 12.288-12.288 12.288 5.12 12.288 12.288-6.144 12.288-12.288 12.288zM904.192 179.2c-6.144 0-10.24 4.096-10.24 10.24v70.656c0 6.144 4.096 10.24 10.24 10.24s10.24-4.096 10.24-10.24v-70.656c0-5.12-4.096-10.24-10.24-10.24zM825.344 192.512c-18.432 0-32.768 14.336-32.768 32.768s14.336 32.768 32.768 32.768 32.768-14.336 32.768-32.768-15.36-32.768-32.768-32.768z m0 45.056c-7.168 0-12.288-5.12-12.288-12.288s5.12-12.288 12.288-12.288 12.288 5.12 12.288 12.288-6.144 12.288-12.288 12.288z" fill="#077AF1" p-id="3688"></path></svg>