<?xml version="1.0" standalone="no"?><!DOCTYPE svg PUBLIC "-//W3C//DTD SVG 1.1//EN" "http://www.w3.org/Graphics/SVG/1.1/DTD/svg11.dtd"><svg t="1746539967202" class="icon" viewBox="0 0 1024 1024" version="1.1" xmlns="http://www.w3.org/2000/svg" p-id="3571" xmlns:xlink="http://www.w3.org/1999/xlink" width="200" height="200"><path d="M912 32H112C67.888 32 32 67.888 32 112v592c0 44.112 35.888 80 80 80h263.376l-49.776 112H160a16 16 0 0 0-16 16c0 44.112 35.888 80 80 80h576c44.112 0 80-35.888 80-80a16 16 0 0 0-16-16H698.4l-49.776-112H912c44.112 0 80-35.888 80-80V112c0-44.112-35.888-80-80-80zM112 64h800c26.464 0 48 21.536 48 48v528H64V112c0-26.464 21.536-48 48-48z m688 896H224a48.096 48.096 0 0 1-45.264-32h666.528A48.096 48.096 0 0 1 800 960z m-136.624-64H360.624l49.76-112H613.6l49.776 112zM912 752H112c-26.464 0-48-21.536-48-48v-32h896v32c0 26.464-21.536 48-48 48z" p-id="3572" fill="#e59e7b"></path><path d="M148.688 203.312l22.624-22.624L134.624 144l36.688-36.688-22.624-22.624-48 48a15.984 15.984 0 0 0 0 22.624l48 48zM299.312 203.312l48-48a15.984 15.984 0 0 0 0-22.624l-48-48-22.624 22.624L313.376 144l-36.688 36.688 22.624 22.624zM491.312 507.312l48-48a15.984 15.984 0 0 0 0-22.624l-48-48-22.624 22.624L505.376 448l-36.688 36.688 22.624 22.624zM649.376 544l-36.688 36.688 22.624 22.624 48-48a15.984 15.984 0 0 0 0-22.624l-48-48-22.624 22.624L649.376 544zM192 176h64v32h-64zM192 256h64v32h-64zM288 256h336v32H288zM192 336h64v32h-64zM288 336h272v32H288zM224 464h64v32h-64zM320 464h128v32h-128zM224 544h64v32h-64zM320 544h272v32H320zM96 224h32v384H96zM160 432h32v176h-32zM672 320h240a16 16 0 0 0 16-16V112a16 16 0 0 0-16-16H672a16 16 0 0 0-16 16v192a16 16 0 0 0 16 16z m16-192h208v160H688V128zM912 352H736a16 16 0 0 0-16 16v176a16 16 0 0 0 16 16h176a16 16 0 0 0 16-16V368a16 16 0 0 0-16-16z m-16 176h-144v-144h144v144z" p-id="3573" fill="#e59e7b"></path></svg>